<svg version="1.1" preserveAspectRatio="none" xmlns="http://www.w3.org/2000/svg" width="500" height="500" viewBox="0 0 500 500"><rect width="100%" height="100%" fill="#FFFFFF" fill-opacity="1"/><svg viewBox="55.0677 210.0333 334.3376 83" width="333" height="82.66793803628427" x="83.5px" y="208.666px" xmlns="http://www.w3.org/2000/svg" xmlns:xlink="http://www.w3.org/1999/xlink" preserveAspectRatio="none"><defs></defs><style>.companyName {fill:#121212;fill-opacity:1;}.icon3-str {stroke:#5F5F5F;stroke-opacity:1;}.text {fill:#121212;fill-opacity:1;}</style><g opacity="1" transform="rotate(0 55.0677 274.0333)">
<svg width="224.3885" height="19" x="55.0677" y="274.0333" version="1.1" preserveAspectRatio="none" viewBox="0.16 -29.68 444.52 37.64">
  <g transform="matrix(1 0 0 1 0 0)" class="text"><path id="id-6izo4zJp23" d="M10 0L10-25.44L0.16-25.44L0.16-28L22.80-28L22.80-25.44L12.96-25.44L12.96 0L10 0Z M30.68-16.92Q31.68-19.04 33.66-20.12Q35.64-21.20 38.56-21.20L38.56-21.20L38.56-18.44L37.88-18.48Q34.56-18.48 32.68-16.44Q30.80-14.40 30.80-10.72L30.80-10.72L30.80 0L27.96 0L27.96-21.04L30.68-21.04L30.68-16.92Z M52.60-21.20Q56.72-21.20 58.92-19.14Q61.12-17.08 61.12-13.04L61.12-13.04L61.12 0L58.40 0L58.40-3.28Q57.44-1.64 55.58-0.72Q53.72 0.20 51.16 0.20L51.16 0.20Q47.64 0.20 45.56-1.48Q43.48-3.16 43.48-5.92L43.48-5.92Q43.48-8.60 45.42-10.24Q47.36-11.88 51.60-11.88L51.60-11.88L58.28-11.88L58.28-13.16Q58.28-15.88 56.76-17.30Q55.24-18.72 52.32-18.72L52.32-18.72Q50.32-18.72 48.48-18.06Q46.64-17.40 45.32-16.24L45.32-16.24L44.04-18.36Q45.64-19.72 47.88-20.46Q50.12-21.20 52.60-21.20L52.60-21.20ZM51.60-2.04Q54.00-2.04 55.72-3.14Q57.44-4.24 58.28-6.32L58.28-6.32L58.28-9.76L51.68-9.76Q46.28-9.76 46.28-6L46.28-6Q46.28-4.16 47.68-3.10Q49.08-2.04 51.60-2.04L51.60-2.04Z M84.92-21.04L87.72-21.04L78.36 0L75.44 0L66.12-21.04L69.08-21.04L76.96-3.12L84.92-21.04Z M111.08-10.52L111.04-9.64L93.44-9.64Q93.68-6.36 95.96-4.34Q98.24-2.32 101.72-2.32L101.72-2.32Q103.68-2.32 105.32-3.02Q106.96-3.72 108.16-5.08L108.16-5.08L109.76-3.24Q108.36-1.56 106.26-0.68Q104.16 0.20 101.64 0.20L101.64 0.20Q98.40 0.20 95.90-1.18Q93.40-2.56 92.00-5Q90.60-7.44 90.60-10.52L90.60-10.52Q90.60-13.60 91.94-16.04Q93.28-18.48 95.62-19.84Q97.96-21.20 100.88-21.20L100.88-21.20Q103.80-21.20 106.12-19.84Q108.44-18.48 109.76-16.06Q111.08-13.64 111.08-10.52L111.08-10.52ZM100.88-18.76Q97.84-18.76 95.78-16.82Q93.72-14.88 93.44-11.76L93.44-11.76L108.36-11.76Q108.08-14.88 106.02-16.82Q103.96-18.76 100.88-18.76L100.88-18.76Z M118.48 0L118.48-29.68L121.32-29.68L121.32 0L118.48 0Z M141.36-9.60L141.36-12.08L151.84-12.08L151.84-9.60L141.36-9.60Z M177.52 0.20Q174.96 0.20 172.62-0.54Q170.28-1.28 168.96-2.40L168.96-2.40L170.24-4.64Q171.56-3.60 173.56-2.94Q175.56-2.28 177.72-2.28L177.72-2.28Q180.60-2.28 181.98-3.18Q183.36-4.08 183.36-5.72L183.36-5.72Q183.36-6.88 182.60-7.54Q181.84-8.20 180.68-8.54Q179.52-8.88 177.60-9.20L177.60-9.20Q175.04-9.68 173.48-10.18Q171.92-10.68 170.82-11.88Q169.72-13.08 169.72-15.20L169.72-15.20Q169.72-17.84 171.92-19.52Q174.12-21.20 178.04-21.20L178.04-21.20Q180.08-21.20 182.12-20.66Q184.16-20.12 185.48-19.24L185.48-19.24L184.24-16.96Q181.64-18.76 178.04-18.76L178.04-18.76Q175.32-18.76 173.94-17.80Q172.56-16.84 172.56-15.28L172.56-15.28Q172.56-14.08 173.34-13.36Q174.12-12.64 175.28-12.30Q176.44-11.96 178.48-11.60L178.48-11.60Q181.00-11.12 182.52-10.64Q184.04-10.16 185.12-9Q186.20-7.84 186.20-5.80L186.20-5.80Q186.20-3.04 183.90-1.42Q181.60 0.20 177.52 0.20L177.52 0.20Z M211.40-10.52L211.36-9.64L193.76-9.64Q194.00-6.36 196.28-4.34Q198.56-2.32 202.04-2.32L202.04-2.32Q204.00-2.32 205.64-3.02Q207.28-3.72 208.48-5.08L208.48-5.08L210.08-3.24Q208.68-1.56 206.58-0.68Q204.48 0.20 201.96 0.20L201.96 0.20Q198.72 0.20 196.22-1.18Q193.72-2.56 192.32-5Q190.92-7.44 190.92-10.52L190.92-10.52Q190.92-13.60 192.26-16.04Q193.60-18.48 195.94-19.84Q198.28-21.20 201.20-21.20L201.20-21.20Q204.12-21.20 206.44-19.84Q208.76-18.48 210.08-16.06Q211.40-13.64 211.40-10.52L211.40-10.52ZM201.20-18.76Q198.16-18.76 196.10-16.82Q194.04-14.88 193.76-11.76L193.76-11.76L208.68-11.76Q208.40-14.88 206.34-16.82Q204.28-18.76 201.20-18.76L201.20-18.76Z M237.16-10.52L237.12-9.64L219.52-9.64Q219.76-6.36 222.04-4.34Q224.32-2.32 227.80-2.32L227.80-2.32Q229.76-2.32 231.40-3.02Q233.04-3.72 234.24-5.08L234.24-5.08L235.84-3.24Q234.44-1.56 232.34-0.68Q230.24 0.20 227.72 0.20L227.72 0.20Q224.48 0.20 221.98-1.18Q219.48-2.56 218.08-5Q216.68-7.44 216.68-10.52L216.68-10.52Q216.68-13.60 218.02-16.04Q219.36-18.48 221.70-19.84Q224.04-21.20 226.96-21.20L226.96-21.20Q229.88-21.20 232.20-19.84Q234.52-18.48 235.84-16.06Q237.16-13.64 237.16-10.52L237.16-10.52ZM226.96-18.76Q223.92-18.76 221.86-16.82Q219.80-14.88 219.52-11.76L219.52-11.76L234.44-11.76Q234.16-14.88 232.10-16.82Q230.04-18.76 226.96-18.76L226.96-18.76Z M266.72-3.32L267.72-1.28Q266.92-0.56 265.74-0.18Q264.56 0.20 263.28 0.20L263.28 0.20Q260.32 0.20 258.72-1.40Q257.12-3 257.12-5.92L257.12-5.92L257.12-18.64L253.36-18.64L253.36-21.04L257.12-21.04L257.12-25.64L259.96-25.64L259.96-21.04L266.36-21.04L266.36-18.64L259.96-18.64L259.96-6.08Q259.96-4.20 260.90-3.22Q261.84-2.24 263.60-2.24L263.60-2.24Q264.48-2.24 265.30-2.52Q266.12-2.80 266.72-3.32L266.72-3.32Z M285.20-21.20Q289.16-21.20 291.50-18.90Q293.84-16.60 293.84-12.20L293.84-12.20L293.84 0L291.00 0L291.00-11.92Q291.00-15.20 289.36-16.92Q287.72-18.64 284.68-18.64L284.68-18.64Q281.28-18.64 279.30-16.62Q277.32-14.60 277.32-11.04L277.32-11.04L277.32 0L274.48 0L274.48-29.68L277.32-29.68L277.32-17.36Q278.48-19.20 280.52-20.20Q282.56-21.20 285.20-21.20L285.20-21.20Z M321.60-10.52L321.56-9.64L303.96-9.64Q304.20-6.36 306.48-4.34Q308.76-2.32 312.24-2.32L312.24-2.32Q314.20-2.32 315.84-3.02Q317.48-3.72 318.68-5.08L318.68-5.08L320.28-3.24Q318.88-1.56 316.78-0.68Q314.68 0.20 312.16 0.20L312.16 0.20Q308.92 0.20 306.42-1.18Q303.92-2.56 302.52-5Q301.12-7.44 301.12-10.52L301.12-10.52Q301.12-13.60 302.46-16.04Q303.80-18.48 306.14-19.84Q308.48-21.20 311.40-21.20L311.40-21.20Q314.32-21.20 316.64-19.84Q318.96-18.48 320.28-16.06Q321.60-13.64 321.60-10.52L321.60-10.52ZM311.40-18.76Q308.36-18.76 306.30-16.82Q304.24-14.88 303.96-11.76L303.96-11.76L318.88-11.76Q318.60-14.88 316.54-16.82Q314.48-18.76 311.40-18.76L311.40-18.76Z M341.08 0L341.08-29.68L343.92-29.68L343.92 0L341.08 0Z M353.44 0L353.44-21.04L356.28-21.04L356.28 0L353.44 0ZM354.88-25.64Q354-25.64 353.40-26.24Q352.80-26.84 352.80-27.68L352.80-27.68Q352.80-28.48 353.40-29.08Q354-29.68 354.88-29.68L354.88-29.68Q355.76-29.68 356.36-29.10Q356.96-28.52 356.96-27.72L356.96-27.72Q356.96-26.84 356.36-26.24Q355.76-25.64 354.88-25.64L354.88-25.64Z M382.56-21.04L385.28-21.04L385.28-2.56Q385.28 2.80 382.66 5.38Q380.04 7.96 374.76 7.96L374.76 7.96Q371.84 7.96 369.22 7.10Q366.60 6.24 364.96 4.72L364.96 4.72L366.40 2.56Q367.92 3.92 370.10 4.68Q372.28 5.44 374.68 5.44L374.68 5.44Q378.68 5.44 380.56 3.58Q382.44 1.72 382.44-2.20L382.44-2.20L382.44-4.88Q381.12-2.88 378.98-1.84Q376.84-0.80 374.24-0.80L374.24-0.80Q371.28-0.80 368.86-2.10Q366.44-3.40 365.06-5.74Q363.68-8.08 363.68-11.04L363.68-11.04Q363.68-14 365.06-16.32Q366.44-18.64 368.84-19.92Q371.24-21.20 374.24-21.20L374.24-21.20Q376.92-21.20 379.08-20.12Q381.24-19.04 382.56-17L382.56-17L382.56-21.04ZM374.52-3.32Q376.80-3.32 378.64-4.30Q380.48-5.28 381.50-7.04Q382.52-8.80 382.52-11.04L382.52-11.04Q382.52-13.28 381.50-15.02Q380.48-16.76 378.66-17.74Q376.84-18.72 374.52-18.72L374.52-18.72Q372.24-18.72 370.42-17.76Q368.60-16.80 367.58-15.04Q366.56-13.28 366.56-11.04L366.56-11.04Q366.56-8.80 367.58-7.04Q368.60-5.28 370.42-4.30Q372.24-3.32 374.52-3.32L374.52-3.32Z M405.56-21.20Q409.52-21.20 411.86-18.90Q414.20-16.60 414.20-12.20L414.20-12.20L414.20 0L411.36 0L411.36-11.92Q411.36-15.20 409.72-16.92Q408.08-18.64 405.04-18.64L405.04-18.64Q401.64-18.64 399.66-16.62Q397.68-14.60 397.68-11.04L397.68-11.04L397.68 0L394.84 0L394.84-29.68L397.68-29.68L397.68-17.36Q398.84-19.20 400.88-20.20Q402.92-21.20 405.56-21.20L405.56-21.20Z M433.60-3.32L434.60-1.28Q433.80-0.56 432.62-0.18Q431.44 0.20 430.16 0.20L430.16 0.20Q427.20 0.20 425.60-1.40Q424.00-3 424.00-5.92L424.00-5.92L424.00-18.64L420.24-18.64L420.24-21.04L424.00-21.04L424.00-25.64L426.84-25.64L426.84-21.04L433.24-21.04L433.24-18.64L426.84-18.64L426.84-6.08Q426.84-4.20 427.78-3.22Q428.72-2.24 430.48-2.24L430.48-2.24Q431.36-2.24 432.18-2.52Q433.00-2.80 433.60-3.32L433.60-3.32Z M441.48-8.40L440.92-28L444.28-28L443.68-8.40L441.48-8.40ZM442.60 0.20Q441.72 0.20 441.10-0.42Q440.48-1.04 440.48-1.88L440.48-1.88Q440.48-2.76 441.08-3.34Q441.68-3.92 442.60-3.92L442.60-3.92Q443.48-3.92 444.08-3.34Q444.68-2.76 444.68-1.88L444.68-1.88Q444.68-1.04 444.08-0.42Q443.48 0.20 442.60 0.20L442.60 0.20Z"/></g>
</svg>
</g><g opacity="1" transform="rotate(0 55.0677 210.0333)">
<svg width="334.3376" height="50" x="55.0677" y="210.0333" version="1.1" preserveAspectRatio="none" viewBox="0.8 -26.8 181.84 27.2">
  <g transform="matrix(1 0 0 1 0 0)" class="companyName"><path id="id-D6z1nYkh9" d="M21.96-15.60L21.16-15.60Q21.16-19.16 19.98-20.38Q18.80-21.60 15.56-21.60L15.56-21.60L14.36-21.60L14.36-0.80L17.16-0.80L17.16 0L5.56 0L5.56-0.80L8.36-0.80L8.36-21.60L7.16-21.60Q3.96-21.60 2.78-20.38Q1.60-19.16 1.60-15.60L1.60-15.60L0.80-15.60L0.80-22.40L21.96-22.40L21.96-15.60Z M34.36-0.80L34.36 0L24.36 0L24.36-0.80L26.36-0.80L26.36-17.60L24.36-17.60L24.36-18.40L32.36-18.40L32.36-13.64Q32.72-15.60 33.66-16.84Q34.60-18.08 35.74-18.48Q36.88-18.88 37.94-18.88Q39-18.88 39.98-18.50Q40.96-18.12 41.44-16.98Q41.92-15.84 41.48-14.70Q41.04-13.56 39.94-13.08Q38.84-12.60 37.92-12.96Q37-13.32 36.60-13.94Q36.20-14.56 36.04-15.12L36.04-15.12Q35.64-16.60 34.96-16.60L34.96-16.60Q34.20-16.60 33.28-13.98Q32.36-11.36 32.36-8.44L32.36-8.44L32.36-0.80L34.36-0.80Z M63.08-0.80Q62.68-0.40 61.56-0.10Q60.44 0.20 58.96 0.20L58.96 0.20Q55.68 0.20 54.84-1.76L54.84-1.76Q52.84 0.32 48.72 0.32L48.72 0.32Q46.52 0.32 45.10-0.70Q43.68-1.72 43.68-3.72L43.68-3.72Q43.68-6.40 45.76-7.86Q47.84-9.32 53.04-9.92L53.04-9.92L54.64-10.12L54.64-12.08Q54.64-15.56 54.12-16.76Q53.60-17.96 52.06-17.96Q50.52-17.96 50.08-17.54Q49.64-17.12 49.76-16.58Q49.88-16.04 50.16-15.16Q50.44-14.28 50.44-13.76L50.44-13.76Q50.44-12.52 49.58-11.66Q48.72-10.80 47.50-10.80Q46.28-10.80 45.40-11.66Q44.52-12.52 44.52-13.76L44.52-13.76Q44.52-15.80 46.62-17.26Q48.72-18.72 52.90-18.72Q57.08-18.72 58.86-17.08Q60.64-15.44 60.64-11.28L60.64-11.28L60.64-4.08Q60.64-1.96 61.16-1.42Q61.68-0.88 63.08-1.20L63.08-1.20L63.08-0.80ZM49.24-4.52Q49.44-3 50.36-2.18Q51.28-1.36 52.50-1.36Q53.72-1.36 54.64-2.56L54.64-2.56L54.64-9.36L53.20-9.16Q51.36-8.92 50.22-7.76Q49.08-6.60 49.24-4.52L49.24-4.52Z M78.92-18.40L84.92-18.40L84.92-17.60L82.96-17.60L75.48 0L74.76 0L65.88-17.60L64.28-17.60L64.28-18.40L74.68-18.40L74.68-17.60L72.68-17.60L77.64-7.20L82.08-17.60L78.92-17.60L78.92-18.40Z M104.60-8L104.60-8L92.52-8Q92.92-0.96 98-0.96L98-0.96Q99.36-0.96 101.10-1.60Q102.84-2.24 103.64-3.40L103.64-3.40L104.20-3Q103.32-1.52 101.20-0.56Q99.08 0.40 96.98 0.40Q94.88 0.40 93.20-0.02Q91.52-0.44 89.92-1.44Q88.32-2.44 87.42-4.44Q86.52-6.44 86.52-9.28L86.52-9.28Q86.52-14.12 89.20-16.46Q91.88-18.80 95.70-18.80Q99.52-18.80 102.06-16.24Q104.60-13.68 104.60-8ZM92.48-9.24L92.48-8.80L99-8.80Q99-12.48 98.22-15.24Q97.44-18 95.72-18Q94-18 93.24-15.34Q92.48-12.68 92.48-9.24L92.48-9.24Z M115.52-26.80L115.52-0.80L117.52-0.80L117.52 0L107.52 0L107.52-0.80L109.52-0.80L109.52-26L107.52-26L107.52-26.80L115.52-26.80Z M127.12-15.76L127.12-6.24Q127.12-3.20 127.80-1.86Q128.48-0.52 129.98-0.52Q131.48-0.52 132.64-2.78Q133.80-5.04 133.80-9.14Q133.80-13.24 132.58-15.44Q131.36-17.64 129.72-17.64Q128.08-17.64 127.12-15.76L127.12-15.76ZM136.52-1.42Q135.04-0.44 133.64-0.04Q132.24 0.36 130.90 0.36Q129.56 0.36 128.44-0.14Q127.32-0.64 126.66-1.22Q126.00-1.80 125.20-2.30Q124.40-2.80 123.68-2.80Q122.96-2.80 122.42-2Q121.88-1.20 121.88 0L121.88 0L121.12 0L121.12-26L119.12-26L119.12-26.80L127.12-26.80L127.12-16.96Q127.76-18.04 129.22-18.66Q130.68-19.28 132.28-19.28L132.28-19.28Q135.32-19.28 137.58-16.62Q139.84-13.96 139.84-9.20L139.84-9.20Q139.84-6.40 138.92-4.40Q138-2.40 136.52-1.42Z M160.32-8L160.32-8L148.24-8Q148.64-0.96 153.72-0.96L153.72-0.96Q155.08-0.96 156.82-1.60Q158.56-2.24 159.36-3.40L159.36-3.40L159.92-3Q159.04-1.52 156.92-0.56Q154.80 0.40 152.70 0.40Q150.60 0.40 148.92-0.02Q147.24-0.44 145.64-1.44Q144.04-2.44 143.14-4.44Q142.24-6.44 142.24-9.28L142.24-9.28Q142.24-14.12 144.92-16.46Q147.60-18.80 151.42-18.80Q155.24-18.80 157.78-16.24Q160.32-13.68 160.32-8ZM148.20-9.24L148.20-8.80L154.72-8.80Q154.72-12.48 153.94-15.24Q153.16-18 151.44-18Q149.72-18 148.96-15.34Q148.20-12.68 148.20-9.24L148.20-9.24Z M182.64-0.80Q182.24-0.40 181.12-0.10Q180 0.20 178.52 0.20L178.52 0.20Q175.24 0.20 174.40-1.76L174.40-1.76Q172.40 0.32 168.28 0.32L168.28 0.32Q166.08 0.32 164.66-0.70Q163.24-1.72 163.24-3.72L163.24-3.72Q163.24-6.40 165.32-7.86Q167.40-9.32 172.60-9.92L172.60-9.92L174.20-10.12L174.20-12.08Q174.20-15.56 173.68-16.76Q173.16-17.96 171.62-17.96Q170.08-17.96 169.64-17.54Q169.20-17.12 169.32-16.58Q169.44-16.04 169.72-15.16Q170-14.28 170-13.76L170-13.76Q170-12.52 169.14-11.66Q168.28-10.80 167.06-10.80Q165.84-10.80 164.96-11.66Q164.08-12.52 164.08-13.76L164.08-13.76Q164.08-15.80 166.18-17.26Q168.28-18.72 172.46-18.72Q176.64-18.72 178.42-17.08Q180.20-15.44 180.20-11.28L180.20-11.28L180.20-4.08Q180.20-1.96 180.72-1.42Q181.24-0.88 182.64-1.20L182.64-1.20L182.64-0.80ZM168.80-4.52Q169-3 169.92-2.18Q170.84-1.36 172.06-1.36Q173.28-1.36 174.20-2.56L174.20-2.56L174.20-9.36L172.76-9.16Q170.92-8.92 169.78-7.76Q168.64-6.60 168.80-4.52L168.80-4.52Z"/></g>
</svg>
</g></svg></svg>