<svg version="1.1" preserveAspectRatio="none" xmlns="http://www.w3.org/2000/svg" width="500" height="500" viewBox="0 0 500 500"><rect width="100%" height="100%" fill="#FFFFFF" fill-opacity="1"/><svg viewBox="355.8888 208.9359 387.867 247.6679" width="333" height="212.63322401751117" x="83.5px" y="143.6834px" xmlns="http://www.w3.org/2000/svg" xmlns:xlink="http://www.w3.org/1999/xlink" preserveAspectRatio="none"><defs></defs><style>.companyName {fill:#0000FF;fill-opacity:1;}.icon1 {fill:#0000FF;fill-opacity:1;}.icon2 {fill:#A9FF94;fill-opacity:1;}.icon3 {fill:#000084;fill-opacity:1;}.icon3-str {stroke:#000084;stroke-opacity:1;}.text {fill:#0000FF;fill-opacity:1;}</style><g opacity="1" transform="rotate(0 414.2513 434.1038)">
<svg width="271.142" height="22.5" x="414.2513" y="434.1038" version="1.1" preserveAspectRatio="none" viewBox="0.16 -30.28 461.23999999999995 38.28">
  <g transform="matrix(1 0 0 1 0 0)" class="text"><path id="id-6izo4zJp23" d="M9.76 0L9.76-24.52L0.16-24.52L0.16-28L23.32-28L23.32-24.52L13.72-24.52L13.72 0L9.76 0Z M32.28-17.64Q33.28-19.48 35.24-20.44Q37.20-21.40 40-21.40L40-21.40L40-17.68Q39.68-17.72 39.12-17.72L39.12-17.72Q36-17.72 34.22-15.86Q32.44-14 32.44-10.56L32.44-10.56L32.44 0L28.60 0L28.60-21.20L32.28-21.20L32.28-17.64Z M54.40-21.40Q58.80-21.40 61.14-19.24Q63.48-17.08 63.48-12.80L63.48-12.80L63.48 0L59.84 0L59.84-2.80Q58.88-1.32 57.10-0.54Q55.32 0.24 52.88 0.24L52.88 0.24Q49.32 0.24 47.18-1.48Q45.04-3.20 45.04-6L45.04-6Q45.04-8.80 47.08-10.50Q49.12-12.20 53.56-12.20L53.56-12.20L59.64-12.20L59.64-12.96Q59.64-15.44 58.20-16.76Q56.76-18.08 53.96-18.08L53.96-18.08Q52.08-18.08 50.28-17.46Q48.48-16.84 47.24-15.80L47.24-15.80L45.64-18.68Q47.28-20 49.56-20.70Q51.84-21.40 54.40-21.40L54.40-21.40ZM53.52-2.72Q55.72-2.72 57.32-3.70Q58.92-4.68 59.64-6.48L59.64-6.48L59.64-9.44L53.72-9.44Q48.84-9.44 48.84-6.16L48.84-6.16Q48.84-4.56 50.08-3.64Q51.32-2.72 53.52-2.72L53.52-2.72Z M87.20-21.20L90.96-21.20L81.68 0L77.76 0L68.48-21.20L72.48-21.20L79.76-4.20L87.20-21.20Z M115.12-10.48Q115.12-10.04 115.04-9.32L115.04-9.32L97.84-9.32Q98.20-6.52 100.30-4.82Q102.40-3.12 105.52-3.12L105.52-3.12Q109.32-3.12 111.64-5.68L111.64-5.68L113.76-3.20Q112.32-1.52 110.18-0.64Q108.04 0.24 105.40 0.24L105.40 0.24Q102.04 0.24 99.44-1.14Q96.84-2.52 95.42-5Q94.00-7.48 94.00-10.60L94.00-10.60Q94.00-13.68 95.38-16.16Q96.76-18.64 99.18-20.02Q101.60-21.40 104.64-21.40L104.64-21.40Q107.68-21.40 110.06-20.02Q112.44-18.64 113.78-16.16Q115.12-13.68 115.12-10.48L115.12-10.48ZM104.64-18.16Q101.88-18.16 100.02-16.48Q98.16-14.80 97.84-12.08L97.84-12.08L111.44-12.08Q111.12-14.76 109.26-16.46Q107.40-18.16 104.64-18.16L104.64-18.16Z M122.44 0L122.44-29.68L126.28-29.68L126.28 0L122.44 0Z M147-9.32L147-12.64L157.76-12.64L157.76-9.32L147-9.32Z M184.52 0.24Q181.92 0.24 179.52-0.46Q177.12-1.16 175.76-2.24L175.76-2.24L177.36-5.28Q178.76-4.28 180.76-3.68Q182.76-3.08 184.80-3.08L184.80-3.08Q189.84-3.08 189.84-5.96L189.84-5.96Q189.84-6.92 189.16-7.48Q188.48-8.04 187.46-8.30Q186.44-8.56 184.56-8.88L184.56-8.88Q182.00-9.28 180.38-9.80Q178.76-10.32 177.60-11.56Q176.44-12.80 176.44-15.04L176.44-15.04Q176.44-17.92 178.84-19.66Q181.24-21.40 185.28-21.40L185.28-21.40Q187.40-21.40 189.52-20.88Q191.64-20.36 193.00-19.48L193.00-19.48L191.36-16.44Q188.76-18.12 185.24-18.12L185.24-18.12Q182.80-18.12 181.52-17.32Q180.24-16.52 180.24-15.20L180.24-15.20Q180.24-14.16 180.96-13.56Q181.68-12.96 182.74-12.68Q183.80-12.40 185.72-12.04L185.72-12.04Q188.28-11.60 189.86-11.10Q191.44-10.60 192.56-9.40Q193.68-8.20 193.68-6.04L193.68-6.04Q193.68-3.16 191.22-1.46Q188.76 0.24 184.52 0.24L184.52 0.24Z M219.64-10.48Q219.64-10.04 219.56-9.32L219.56-9.32L202.36-9.32Q202.72-6.52 204.82-4.82Q206.92-3.12 210.04-3.12L210.04-3.12Q213.84-3.12 216.16-5.68L216.16-5.68L218.28-3.20Q216.84-1.52 214.70-0.64Q212.56 0.24 209.92 0.24L209.92 0.24Q206.56 0.24 203.96-1.14Q201.36-2.52 199.94-5Q198.52-7.48 198.52-10.60L198.52-10.60Q198.52-13.68 199.90-16.16Q201.28-18.64 203.70-20.02Q206.12-21.40 209.16-21.40L209.16-21.40Q212.20-21.40 214.58-20.02Q216.96-18.64 218.30-16.16Q219.64-13.68 219.64-10.48L219.64-10.48ZM209.16-18.16Q206.40-18.16 204.54-16.48Q202.68-14.80 202.36-12.08L202.36-12.08L215.96-12.08Q215.64-14.76 213.78-16.46Q211.92-18.16 209.16-18.16L209.16-18.16Z M246.12-10.48Q246.12-10.04 246.04-9.32L246.04-9.32L228.84-9.32Q229.20-6.52 231.30-4.82Q233.40-3.12 236.52-3.12L236.52-3.12Q240.32-3.12 242.64-5.68L242.64-5.68L244.76-3.20Q243.32-1.52 241.18-0.64Q239.04 0.24 236.40 0.24L236.40 0.24Q233.04 0.24 230.44-1.14Q227.84-2.52 226.42-5Q225.00-7.48 225.00-10.60L225.00-10.60Q225.00-13.68 226.38-16.16Q227.76-18.64 230.18-20.02Q232.60-21.40 235.64-21.40L235.64-21.40Q238.68-21.40 241.06-20.02Q243.44-18.64 244.78-16.16Q246.12-13.68 246.12-10.48L246.12-10.48ZM235.64-18.16Q232.88-18.16 231.02-16.48Q229.16-14.80 228.84-12.08L228.84-12.08L242.44-12.08Q242.12-14.76 240.26-16.46Q238.40-18.16 235.64-18.16L235.64-18.16Z M276.92-4L278.12-1.24Q277.28-0.52 276.04-0.14Q274.80 0.24 273.48 0.24L273.48 0.24Q270.28 0.24 268.52-1.48Q266.76-3.20 266.76-6.40L266.76-6.40L266.76-18.04L263.16-18.04L263.16-21.20L266.76-21.20L266.76-25.84L270.60-25.84L270.60-21.20L276.68-21.20L276.68-18.04L270.60-18.04L270.60-6.56Q270.60-4.84 271.46-3.92Q272.32-3 273.92-3L273.92-3Q275.68-3 276.92-4L276.92-4Z M296.08-21.40Q300.12-21.40 302.50-19.06Q304.88-16.72 304.88-12.20L304.88-12.20L304.88 0L301.04 0L301.04-11.76Q301.04-14.84 299.56-16.40Q298.08-17.96 295.32-17.96L295.32-17.96Q292.20-17.96 290.40-16.14Q288.60-14.32 288.60-10.92L288.60-10.92L288.60 0L284.76 0L284.76-29.68L288.60-29.68L288.60-18.20Q289.80-19.72 291.74-20.56Q293.68-21.40 296.08-21.40L296.08-21.40Z M333.28-10.48Q333.28-10.04 333.20-9.32L333.20-9.32L316.00-9.32Q316.36-6.52 318.46-4.82Q320.56-3.12 323.68-3.12L323.68-3.12Q327.48-3.12 329.80-5.68L329.80-5.68L331.92-3.20Q330.48-1.52 328.34-0.64Q326.20 0.24 323.56 0.24L323.56 0.24Q320.20 0.24 317.60-1.14Q315.00-2.52 313.58-5Q312.16-7.48 312.16-10.60L312.16-10.60Q312.16-13.68 313.54-16.16Q314.92-18.64 317.34-20.02Q319.76-21.40 322.80-21.40L322.80-21.40Q325.84-21.40 328.22-20.02Q330.60-18.64 331.94-16.16Q333.28-13.68 333.28-10.48L333.28-10.48ZM322.80-18.16Q320.04-18.16 318.18-16.48Q316.32-14.80 316.00-12.08L316.00-12.08L329.60-12.08Q329.28-14.76 327.42-16.46Q325.56-18.16 322.80-18.16L322.80-18.16Z M353.36 0L353.36-29.68L357.20-29.68L357.20 0L353.36 0Z M366.52 0L366.52-21.20L370.36-21.20L370.36 0L366.52 0ZM368.44-25.28Q367.32-25.28 366.58-26Q365.84-26.72 365.84-27.76L365.84-27.76Q365.84-28.80 366.58-29.54Q367.32-30.28 368.44-30.28L368.44-30.28Q369.56-30.28 370.30-29.58Q371.04-28.88 371.04-27.84L371.04-27.84Q371.04-26.76 370.30-26.02Q369.56-25.28 368.44-25.28L368.44-25.28Z M396.32-21.20L399.96-21.20L399.96-2.88Q399.96 2.68 397.20 5.34Q394.44 8 388.96 8L388.96 8Q385.96 8 383.24 7.18Q380.52 6.36 378.84 4.84L378.84 4.84L380.68 1.88Q382.16 3.16 384.34 3.90Q386.52 4.64 388.84 4.64L388.84 4.64Q392.56 4.64 394.34 2.88Q396.12 1.12 396.12-2.48L396.12-2.48L396.12-4.16Q394.76-2.52 392.78-1.70Q390.80-0.88 388.48-0.88L388.48-0.88Q385.44-0.88 382.98-2.18Q380.52-3.48 379.12-5.82Q377.72-8.16 377.72-11.16L377.72-11.16Q377.72-14.16 379.12-16.50Q380.52-18.84 382.98-20.12Q385.44-21.40 388.48-21.40L388.48-21.40Q390.88-21.40 392.94-20.52Q395-19.64 396.32-17.92L396.32-17.92L396.32-21.20ZM388.92-4.24Q391-4.24 392.66-5.12Q394.32-6 395.26-7.58Q396.20-9.16 396.20-11.16L396.20-11.16Q396.20-14.24 394.16-16.14Q392.12-18.04 388.92-18.04L388.92-18.04Q385.68-18.04 383.64-16.14Q381.60-14.24 381.60-11.16L381.60-11.16Q381.60-9.16 382.54-7.58Q383.48-6 385.14-5.12Q386.80-4.24 388.92-4.24L388.92-4.24Z M420.60-21.40Q424.64-21.40 427.02-19.06Q429.40-16.72 429.40-12.20L429.40-12.20L429.40 0L425.56 0L425.56-11.76Q425.56-14.84 424.08-16.40Q422.60-17.96 419.84-17.96L419.84-17.96Q416.72-17.96 414.92-16.14Q413.12-14.32 413.12-10.92L413.12-10.92L413.12 0L409.28 0L409.28-29.68L413.12-29.68L413.12-18.20Q414.32-19.72 416.26-20.56Q418.20-21.40 420.60-21.40L420.60-21.40Z M449.24-4L450.44-1.24Q449.60-0.52 448.36-0.14Q447.12 0.24 445.80 0.24L445.80 0.24Q442.60 0.24 440.84-1.48Q439.08-3.20 439.08-6.40L439.08-6.40L439.08-18.04L435.48-18.04L435.48-21.20L439.08-21.20L439.08-25.84L442.92-25.84L442.92-21.20L449.00-21.20L449.00-18.04L442.92-18.04L442.92-6.56Q442.92-4.84 443.78-3.92Q444.64-3 446.24-3L446.24-3Q448.00-3 449.24-4L449.24-4Z M457.28-8.84L456.56-28L461.08-28L460.32-8.84L457.28-8.84ZM458.84 0.24Q457.72 0.24 456.96-0.50Q456.20-1.24 456.20-2.32L456.20-2.32Q456.20-3.40 456.96-4.14Q457.72-4.88 458.84-4.88L458.84-4.88Q459.96-4.88 460.68-4.14Q461.40-3.40 461.40-2.32L461.40-2.32Q461.40-1.24 460.66-0.50Q459.92 0.24 458.84 0.24L458.84 0.24Z"/></g>
</svg>
</g><g opacity="1" transform="rotate(0 355.8888 360.1038)">
<svg width="387.867" height="50" x="355.8888" y="360.1038" version="1.1" preserveAspectRatio="none" viewBox="0.16 -29.68 232.72 30">
  <g transform="matrix(1 0 0 1 0 0)" class="companyName"><path id="id-D6z1nYkh9" d="M9.12 0L9.12-22.72L0.16-22.72L0.16-28L24.56-28L24.56-22.72L15.60-22.72L15.60 0L9.12 0Z M37.16-18.68Q38.28-20.24 40.18-21.04Q42.08-21.84 44.56-21.84L44.56-21.84L44.56-16.08Q43.52-16.16 43.16-16.16L43.16-16.16Q40.48-16.16 38.96-14.66Q37.44-13.16 37.44-10.16L37.44-10.16L37.44 0L31.20 0L31.20-21.52L37.16-21.52L37.16-18.68Z M60.92-21.84Q65.92-21.84 68.60-19.46Q71.28-17.08 71.28-12.28L71.28-12.28L71.28 0L65.44 0L65.44-2.68Q63.68 0.32 58.88 0.32L58.88 0.32Q56.40 0.32 54.58-0.52Q52.76-1.36 51.80-2.84Q50.84-4.32 50.84-6.20L50.84-6.20Q50.84-9.20 53.10-10.92Q55.36-12.64 60.08-12.64L60.08-12.64L65.04-12.64Q65.04-14.68 63.80-15.78Q62.56-16.88 60.08-16.88L60.08-16.88Q58.36-16.88 56.70-16.34Q55.04-15.80 53.88-14.88L53.88-14.88L51.64-19.24Q53.40-20.48 55.86-21.16Q58.32-21.84 60.92-21.84L60.92-21.84ZM60.44-3.88Q62.04-3.88 63.28-4.62Q64.52-5.36 65.04-6.80L65.04-6.80L65.04-9L60.76-9Q56.92-9 56.92-6.48L56.92-6.48Q56.92-5.28 57.86-4.58Q58.80-3.88 60.44-3.88L60.44-3.88Z M95.96-21.52L101.96-21.52L92.88 0L86.44 0L77.40-21.52L83.84-21.52L89.80-6.88L95.96-21.52Z M129.08-10.68Q129.08-10.56 128.96-9L128.96-9L112.68-9Q113.12-7 114.76-5.84Q116.40-4.68 118.84-4.68L118.84-4.68Q120.52-4.68 121.82-5.18Q123.12-5.68 124.24-6.76L124.24-6.76L127.56-3.16Q124.52 0.32 118.68 0.32L118.68 0.32Q115.04 0.32 112.24-1.10Q109.44-2.52 107.92-5.04Q106.40-7.56 106.40-10.76L106.40-10.76Q106.40-13.92 107.90-16.46Q109.40-19 112.02-20.42Q114.64-21.84 117.88-21.84L117.88-21.84Q121.04-21.84 123.60-20.48Q126.16-19.12 127.62-16.58Q129.08-14.04 129.08-10.68L129.08-10.68ZM117.92-17.12Q115.80-17.12 114.36-15.92Q112.92-14.72 112.60-12.64L112.60-12.64L123.20-12.64Q122.88-14.68 121.44-15.90Q120.00-17.12 117.92-17.12L117.92-17.12Z M137.32 0L137.32-29.68L143.56-29.68L143.56 0L137.32 0Z M166.16-21.84Q169.16-21.84 171.62-20.46Q174.08-19.08 175.48-16.58Q176.88-14.08 176.88-10.76L176.88-10.76Q176.88-7.44 175.48-4.94Q174.08-2.44 171.62-1.06Q169.16 0.32 166.16 0.32L166.16 0.32Q161.72 0.32 159.40-2.48L159.40-2.48L159.40 0L153.44 0L153.44-29.68L159.68-29.68L159.68-19.24Q162.04-21.84 166.16-21.84L166.16-21.84ZM165.08-4.80Q167.48-4.80 169.02-6.42Q170.56-8.04 170.56-10.76L170.56-10.76Q170.56-13.48 169.02-15.10Q167.48-16.72 165.08-16.72L165.08-16.72Q162.68-16.72 161.14-15.10Q159.60-13.48 159.60-10.76L159.60-10.76Q159.60-8.04 161.14-6.42Q162.68-4.80 165.08-4.80L165.08-4.80Z M206.20-10.68Q206.20-10.56 206.08-9L206.08-9L189.80-9Q190.24-7 191.88-5.84Q193.52-4.68 195.96-4.68L195.96-4.68Q197.64-4.68 198.94-5.18Q200.24-5.68 201.36-6.76L201.36-6.76L204.68-3.16Q201.64 0.32 195.80 0.32L195.80 0.32Q192.16 0.32 189.36-1.10Q186.56-2.52 185.04-5.04Q183.52-7.56 183.52-10.76L183.52-10.76Q183.52-13.92 185.02-16.46Q186.52-19 189.14-20.42Q191.76-21.84 195-21.84L195-21.84Q198.16-21.84 200.72-20.48Q203.28-19.12 204.74-16.58Q206.20-14.04 206.20-10.68L206.20-10.68ZM195.04-17.12Q192.92-17.12 191.48-15.92Q190.04-14.72 189.72-12.64L189.72-12.64L200.32-12.64Q200-14.68 198.56-15.90Q197.12-17.12 195.04-17.12L195.04-17.12Z M222.52-21.84Q227.52-21.84 230.20-19.46Q232.88-17.08 232.88-12.28L232.88-12.28L232.88 0L227.04 0L227.04-2.68Q225.28 0.32 220.48 0.32L220.48 0.32Q218.00 0.32 216.18-0.52Q214.36-1.36 213.40-2.84Q212.44-4.32 212.44-6.20L212.44-6.20Q212.44-9.20 214.70-10.92Q216.96-12.64 221.68-12.64L221.68-12.64L226.64-12.64Q226.64-14.68 225.40-15.78Q224.16-16.88 221.68-16.88L221.68-16.88Q219.96-16.88 218.30-16.34Q216.64-15.80 215.48-14.88L215.48-14.88L213.24-19.24Q215.00-20.48 217.46-21.16Q219.92-21.84 222.52-21.84L222.52-21.84ZM222.04-3.88Q223.64-3.88 224.88-4.62Q226.12-5.36 226.64-6.80L226.64-6.80L226.64-9L222.36-9Q218.52-9 218.52-6.48L218.52-6.48Q218.52-5.28 219.46-4.58Q220.40-3.88 222.04-3.88L222.04-3.88Z"/></g>
</svg>
</g><g opacity="1" transform="rotate(0 472.2489 208.9359)">
<svg width="155.1468" height="111.1679" x="472.2489" y="208.9359" version="1.1" preserveAspectRatio="none" viewBox="43.45615005493164 59.500999450683594 113.044189453125 80.9999771118164">
  <g transform="matrix(1 0 0 1 0 0)"><g><path d="M155.756 127.628a1.902 1.902 0 0 0-2.668.349c-10.625 13.81-28.242 8.822-45.303 1.725 4.433-7.755 20.456-36.523 20.456-47.142 0-12.714-10.37-23.059-23.117-23.059S82.007 69.845 82.007 82.559c0 9.498 12.724 33.525 18.553 44.035l-1.699-.747c-1.049-.461-2.083-.916-3.102-1.361-4.614-2.264-8.298-4.561-11.652-6.667-4.748-2.984-8.849-5.558-14.17-7.188-8.166-2.5-18.183-.203-25.146 2.166a1.9 1.9 0 1 0 1.227 3.595c6.434-2.188 15.611-4.334 22.802-2.131 3.544 1.085 6.589 2.7 9.741 4.598-9.342-.989-17.692 2.078-23.566 5.285a1.897 1.897 0 0 0-.756 2.579 1.906 1.906 0 0 0 2.583.754c6.87-3.748 17.423-7.331 28.69-3.115 2.693 1.008 5.592 2.239 8.638 3.569a92.305 92.305 0 0 0 7.255 3.18c.859.373 1.731.74 2.603 1.111.113.074.237.106.364.155 9.984 4.235 20.672 8.124 30.394 8.124 8.128 0 15.574-2.715 21.341-10.209a1.898 1.898 0 0 0-.351-2.664zm-50.632-64.33c10.647 0 19.309 8.642 19.309 19.262 0 8.397-12.752 32.584-19.389 44.269-6.585-11.688-19.23-35.87-19.23-44.269 0-10.62 8.662-19.262 19.31-19.262z" data-color="1" class="icon1"></path><path d="M118.936 81.875c0-7.596-6.197-13.777-13.813-13.777-7.616 0-13.813 6.182-13.813 13.777 0 7.598 6.197 13.78 13.813 13.78 7.617-.001 13.813-6.182 13.813-13.78zm-23.818 0c0-5.502 4.489-9.979 10.005-9.979 5.516 0 10.005 4.478 10.005 9.979 0 5.504-4.489 9.982-10.005 9.982-5.516-.001-10.005-4.478-10.005-9.982z" data-color="1" class="icon1"></path></g></g>
</svg>
</g></svg></svg>