<svg version="1.1" preserveAspectRatio="none" xmlns="http://www.w3.org/2000/svg" width="500" height="500" viewBox="0 0 500 500"><rect width="100%" height="100%" fill="#FFFFFF" fill-opacity="1"/><svg viewBox="160.1164 176.1294 423.4977 124" width="333" height="97.50230048474879" x="83.5px" y="201.2488px" xmlns="http://www.w3.org/2000/svg" xmlns:xlink="http://www.w3.org/1999/xlink" preserveAspectRatio="none"><defs></defs><style>.companyName {fill:#0C0C0C;fill-opacity:1;}.icon3 {fill:#0C0C0C;fill-opacity:1;}.icon3-str {stroke:#0C0C0C;stroke-opacity:1;}.text {fill:#0C0C0C;fill-opacity:1;}</style><g opacity="1" transform="rotate(0 189.9015 266.1294)">
<svg width="310.7976" height="24" x="189.9015" y="266.1294" version="1.1" preserveAspectRatio="none" viewBox="1.2 -23.12 412.1714 31.840000000000003">
  <g transform="matrix(1 0 0 1 0 0)" class="text"><path id="id-6izo4zJp23" d="M17.92-17.48L17.92-17.48Q17.60-17.32 17.04-17.32L17.04-17.32Q16.84-17.32 16.30-17.38Q15.76-17.44 15.22-17.52Q14.68-17.60 14.24-17.66Q13.80-17.72 13.76-17.72L13.76-17.72Q12.56-17.72 10.72-17.24L10.72-17.24L11.32-12.72Q11.52-10.84 11.62-9.44Q11.72-8.04 11.72-7.08L11.72-7.08Q11.72-6.76 11.72-6.48Q11.72-6.20 11.68-6L11.68-6Q11.72-5.44 11.72-4.92Q11.72-4.40 11.72-3.96L11.72-3.96Q11.72-2.48 11.60-1.64Q11.48-0.80 11.26-0.38Q11.04 0.04 10.70 0.14Q10.36 0.24 9.92 0.24L9.92 0.24Q9.32 0.24 9.06-0.14Q8.80-0.52 8.72-1.06Q8.64-1.60 8.66-2.16Q8.68-2.72 8.68-3.08L8.68-3.08Q8.68-3.88 8.80-4.52Q8.92-5.16 8.92-5.72L8.92-5.72Q8.92-5.84 8.86-6.44Q8.80-7.04 8.74-8Q8.68-8.96 8.64-10.22Q8.60-11.48 8.60-12.92L8.60-12.92Q8.48-15 7.84-16.84L7.84-16.84Q7.04-16.80 6.24-16.74Q5.44-16.68 4.72-16.60Q4-16.52 3.46-16.40Q2.92-16.28 2.64-16.16L2.64-16.16Q1.20-16.16 1.20-17.40L1.20-17.40Q1.20-17.92 1.64-18.56L1.64-18.56L8.20-19.76L10.32-20Q11.28-20.12 12.20-20.12L12.20-20.12Q12.56-20.12 12.54-20.14Q12.52-20.16 12.86-20.14Q13.20-20.12 14.24-20.06Q15.28-20 17.72-19.84L17.72-19.84Q18.28-19.52 18.28-18.68L18.28-18.68Q18.28-18 17.92-17.48Z M32.96-13.96L34.40-13.60Q34.88-13.28 34.88-12.48L34.88-12.48Q34.88-10.92 33.60-10.92L33.60-10.92Q33-10.92 32.40-11.20Q31.80-11.48 31.24-11.48L31.24-11.48Q30.60-11.48 30.02-11.24Q29.44-11 28.72-10.28L28.72-10.28L27.24-8.84L27.24-8Q27.24-7.40 27.22-6.66Q27.20-5.92 27.16-5.08L27.16-5.08Q27.20-3.60 27.52-1.08L27.52-1.08Q27.40 0.36 26.08 0.36L26.08 0.36Q25.36 0.36 25.06-0.02Q24.76-0.40 24.64-1.04Q24.52-1.68 24.52-2.48Q24.52-3.28 24.44-4.12L24.44-4.12Q24.48-4.32 24.48-4.60Q24.48-4.88 24.48-5.20L24.48-5.20L24.48-5.84L24.24-8.76Q24.20-8.96 24.20-9.12Q24.20-9.28 24.20-9.44L24.20-9.44Q24.20-9.76 24.28-10.16L24.28-10.16Q23.88-11.60 23.88-12.28L23.88-12.28Q23.88-12.84 24.20-13.10Q24.52-13.36 25.36-13.36L25.36-13.36Q25.92-13.36 26.24-12.98Q26.56-12.60 27.04-12.04L27.04-12.04L28.80-13.32Q29.48-13.84 30.06-14Q30.64-14.16 31.20-14.16L31.20-14.16Q32.04-14.16 32.96-13.96L32.96-13.96Z M54.44-4L54.44-4Q55-3.64 55-3.12L55-3.12Q55-2.56 54.44-2.04Q53.88-1.52 53.36-1.52L53.36-1.52Q52.12-1.96 51.22-3.16Q50.32-4.36 50-5.76L50-5.76Q49.72-5.16 49.34-4.26Q48.96-3.36 48.36-2.56Q47.76-1.76 46.88-1.18Q46-0.60 44.68-0.60L44.68-0.60Q44-0.60 42.88-0.84L42.88-0.84Q41.64-1.72 40.94-2.26Q40.24-2.80 39.88-3.28Q39.52-3.76 39.44-4.36Q39.36-4.96 39.36-5.96L39.36-5.96Q39.36-6.80 39.62-7.82Q39.88-8.84 40.36-9.88Q40.84-10.92 41.56-11.92Q42.28-12.92 43.24-13.76L43.24-13.76Q45-14.36 46-14.64Q47-14.92 47.36-14.92L47.36-14.92Q48.16-15.84 49.04-15.84L49.04-15.84Q49.52-15.84 49.88-15.28Q50.24-14.72 50.54-13.82Q50.84-12.92 51.02-11.84Q51.20-10.76 51.32-9.76L51.32-9.76Q51.44-9.56 51.52-9.30Q51.60-9.04 51.68-8.64L51.68-8.64L51.92-7.52Q52.16-6.36 52.84-5.52Q53.52-4.68 54.44-4ZM48.80-9.28L48.80-9.28Q48.72-9.64 48.52-10.48Q48.32-11.32 48-12.64L48-12.64Q47.52-12.52 46.96-12.54Q46.40-12.56 45.76-12.32Q45.12-12.08 44.38-11.44Q43.64-10.80 42.88-9.44L42.88-9.44Q41.92-7.68 41.92-5.72L41.92-5.72Q42.16-5.20 42.36-4.82Q42.56-4.44 42.86-4.14Q43.16-3.84 43.60-3.56Q44.04-3.28 44.72-2.96L44.72-2.96Q45.32-3.08 45.74-3.24Q46.16-3.40 46.48-3.74Q46.80-4.08 47.08-4.60Q47.36-5.12 47.76-5.96L47.76-5.96Q48.80-8.28 48.80-9.28Z M73.48-14L73.48-14Q73.44-13.68 73.22-13.18Q73-12.68 72.62-11.88Q72.24-11.08 71.66-9.92Q71.08-8.76 70.36-7.12L70.36-7.12Q69.20-4 68.20-2.84L68.20-2.84Q68.04-2.40 67.72-1.90Q67.40-1.40 66.96-0.96Q66.52-0.52 65.98-0.24Q65.44 0.04 64.88 0.04L64.88 0.04Q63.44 0.04 62.76-1.96L62.76-1.96Q62.24-2.52 61.82-3.32Q61.40-4.12 61.08-4.88Q60.76-5.64 60.54-6.20Q60.32-6.76 60.28-6.88L60.28-6.88Q59.84-8 59.84-9.24L59.84-9.24L59.84-9.56Q59.40-10.92 59.20-11.88Q59.00-12.84 59.00-13.52L59.00-13.52Q59.40-14.28 60.52-14.28L60.52-14.28Q60.92-14.28 61.16-14.08Q61.40-13.88 61.54-13.50Q61.68-13.12 61.78-12.54Q61.88-11.96 62.04-11.24L62.04-11.24Q62.36-9.60 62.74-8.42Q63.12-7.24 63.52-6.34Q63.92-5.44 64.34-4.70Q64.76-3.96 65.24-3.20L65.24-3.20Q65.80-3.80 66.16-4.24Q66.52-4.68 66.74-5.08Q66.96-5.48 67.12-5.88Q67.28-6.28 67.40-6.84L67.40-6.84Q67.80-7.48 67.98-8.02Q68.16-8.56 68.48-9.38Q68.80-10.20 69.42-11.50Q70.04-12.80 71.24-14.92L71.24-14.92Q71.52-15.32 72.04-15.32L72.04-15.32Q72.64-15.32 73.06-14.90Q73.48-14.48 73.48-14Z M92.96-1.60L92.96-1.60Q91.68-0.32 89.96 0.60Q88.24 1.52 86.44 1.52L86.44 1.52Q85.68 1.52 82.96 0.96L82.96 0.96Q82.24 0.48 81.44-0.24Q80.64-0.96 79.98-1.90Q79.32-2.84 78.90-3.90Q78.48-4.96 78.48-6.12L78.48-6.12L78.48-6.08Q78.52-6.44 78.56-6.92L78.56-6.92Q78.60-7.36 78.64-7.94Q78.68-8.52 78.76-9.32L78.76-9.32Q79.56-10.60 80.42-11.84Q81.28-13.08 82.96-14.04L82.96-14.04Q85.52-14.64 86.80-14.64L86.80-14.64Q87.40-14.64 87.86-14.58Q88.32-14.52 88.74-14.30Q89.16-14.08 89.58-13.72Q90.00-13.36 90.60-12.76L90.60-12.76Q91.04-12.28 91.28-12.06Q91.52-11.84 91.64-11.72Q91.76-11.60 91.76-11.52Q91.76-11.44 91.76-11.28L91.76-11.28Q91.76-9.84 91.46-8.96Q91.16-8.08 90.34-7.52Q89.52-6.96 88.08-6.54Q86.64-6.12 84.36-5.60L84.36-5.60L84.12-5.60Q83.40-5.60 81.56-5.28L81.56-5.28Q83.00-1.04 86.16-1.04L86.16-1.04Q88.40-1.04 91.24-3.32L91.24-3.32Q91.52-3.56 91.96-3.56L91.96-3.56Q93.20-3.56 93.20-2.36L93.20-2.36Q93.20-1.96 92.96-1.60ZM89.12-10.56L89.12-10.56Q88.04-12.36 86.68-12.36L86.68-12.36Q86.08-12.36 85.40-12.20Q84.72-12.04 84.10-11.76Q83.48-11.48 82.94-11.08Q82.40-10.68 82.04-10.16L82.04-10.16Q81.88-9.84 81.74-9.24Q81.60-8.64 81.40-7.80L81.40-7.80Q82.48-8 83.78-8.08Q85.08-8.16 86.26-8.40Q87.44-8.64 88.24-9.12Q89.04-9.60 89.12-10.56Z M104.28-21.32L104.28-21.32Q104.24-20.88 104.12-20.24Q104.00-19.60 103.84-18.94Q103.68-18.28 103.54-17.68Q103.40-17.08 103.32-16.72L103.32-16.72Q103.36-16.52 103.36-16.36Q103.36-16.20 103.36-16L103.36-16Q103.36-15.68 103.28-15.16Q103.20-14.64 103.08-14.08Q102.96-13.52 102.88-13.02Q102.80-12.52 102.80-12.24L102.80-12.24Q102.80-11.84 102.82-11.08Q102.84-10.32 102.84-9.42Q102.84-8.52 102.76-7.56Q102.68-6.60 102.48-5.84L102.48-5.84Q102.52-5.36 102.52-4.88Q102.52-4.40 102.62-3.86Q102.72-3.32 102.98-2.68Q103.24-2.04 103.84-1.32L103.84-1.32Q103.72-0.88 103.10-0.50Q102.48-0.12 101.84-0.12L101.84-0.12Q101.00-0.12 100.46-1.06Q99.92-2 99.92-4.52L99.92-4.52Q99.92-4.96 99.98-5.30Q100.04-5.64 100.04-6.12L100.04-6.12Q100.04-7.12 99.80-8.52L99.80-8.52Q99.96-8.92 100.06-9.64Q100.16-10.36 100.20-11.06Q100.24-11.76 100.26-12.26Q100.28-12.76 100.28-12.72L100.28-12.72Q100.28-12.76 100.38-13.36Q100.48-13.96 100.60-14.80Q100.72-15.64 100.82-16.50Q100.92-17.36 100.92-17.88L100.92-17.88L100.92-18.20Q101.04-18.92 101.20-19.80Q101.36-20.68 101.56-21.72L101.56-21.72Q101.92-22.32 102.76-22.32L102.76-22.32Q103.80-22.32 104.28-21.32Z M145.80-9.96L145.80-9.96Q145.36-9.84 144.88-9.84L144.88-9.84Q144.64-9.84 144.26-9.88Q143.88-9.92 143.46-9.96Q143.04-10 142.62-10.04Q142.20-10.08 141.92-10.08L141.92-10.08Q141.92-10.04 141.18-10.10Q140.44-10.16 138.96-10.16L138.96-10.16Q137.96-10.16 137.72-9.92L137.72-9.92Q136.96-9.88 135.86-9.80Q134.76-9.72 133.32-9.64L133.32-9.64Q131.88-9.76 131.88-10.88L131.88-10.88Q131.88-11.28 131.96-11.60Q132.04-11.92 132.48-12.12Q132.92-12.32 133.86-12.44Q134.80-12.56 136.48-12.60L136.48-12.60Q136.68-12.60 136.94-12.58Q137.20-12.56 137.52-12.56L137.52-12.56Q139.12-12.56 141.84-12.68L141.84-12.68Q142.64-12.64 143.54-12.56Q144.44-12.48 145.48-12.36L145.48-12.36Q146.24-11.76 146.24-11L146.24-11Q146.24-10.48 145.80-9.96Z M184.04-4.36L184.04-4.36Q183.92-3.20 183.20-2.16L183.20-2.16L181.76-0.12Q181.40 0.20 180.64 0.42Q179.88 0.64 179.10 0.78Q178.32 0.92 177.70 1Q177.08 1.08 177.04 1.08L177.04 1.08Q176.64 1.08 176.02 0.94Q175.40 0.80 174.80 0.64Q174.20 0.48 173.76 0.34Q173.32 0.20 173.28 0.20L173.28 0.20L173.24 0.20Q172.80 0.16 172.30 0Q171.80-0.16 171.34-0.40Q170.88-0.64 170.58-0.94Q170.28-1.24 170.28-1.60L170.28-1.60Q170.28-2.04 170.72-2.50Q171.16-2.96 171.60-2.96L171.60-2.96Q175.64-1.36 178.04-1.36L178.04-1.36Q178.92-1.36 179.54-1.72Q180.16-2.08 180.48-2.48L180.48-2.48L181.32-4Q181.32-4.52 181.02-5.04Q180.72-5.56 180.22-5.98Q179.72-6.40 179.08-6.72Q178.44-7.04 177.76-7.16L177.76-7.16Q177-7.28 176.22-7.60Q175.44-7.92 174.78-8.36Q174.12-8.80 173.70-9.34Q173.28-9.88 173.24-10.52L173.24-10.52Q173.20-10.52 173.16-12.04L173.16-12.04Q173.24-12.64 173.32-13Q173.40-13.36 173.68-13.66Q173.96-13.96 174.54-14.32Q175.12-14.68 176.20-15.36L176.20-15.36Q176.52-15.40 177.38-15.46Q178.24-15.52 179.72-15.68L179.72-15.68Q180.36-15.68 183-14.72L183-14.72Q183.40-14.36 183.40-13.64L183.40-13.64Q183.40-12.40 182.56-12.40L182.56-12.40Q182.52-12.40 182.48-12.42Q182.44-12.44 182.36-12.44L182.36-12.44L180.92-12.92Q179.84-13.24 179.08-13.24L179.08-13.24Q177.96-13.24 177.30-13.12Q176.64-13 176.32-12.82Q176-12.64 175.88-12.44Q175.76-12.24 175.72-12.08L175.72-12.08Q175.72-11.96 175.70-11.86Q175.68-11.76 175.68-11.64L175.68-11.64Q175.68-10.08 176.96-9.72L176.96-9.72Q183.28-8.44 184.04-4.36Z M204.32-1.60L204.32-1.60Q203.04-0.32 201.32 0.60Q199.60 1.52 197.80 1.52L197.80 1.52Q197.04 1.52 194.32 0.96L194.32 0.96Q193.60 0.48 192.80-0.24Q192-0.96 191.34-1.90Q190.68-2.84 190.26-3.90Q189.84-4.96 189.84-6.12L189.84-6.12L189.84-6.08Q189.88-6.44 189.92-6.92L189.92-6.92Q189.96-7.36 190-7.94Q190.04-8.52 190.12-9.32L190.12-9.32Q190.92-10.60 191.78-11.84Q192.64-13.08 194.32-14.04L194.32-14.04Q196.88-14.64 198.16-14.64L198.16-14.64Q198.76-14.64 199.22-14.58Q199.68-14.52 200.10-14.30Q200.52-14.08 200.94-13.72Q201.36-13.36 201.96-12.76L201.96-12.76Q202.40-12.28 202.64-12.06Q202.88-11.84 203-11.72Q203.12-11.60 203.12-11.52Q203.12-11.44 203.12-11.28L203.12-11.28Q203.12-9.84 202.82-8.96Q202.52-8.08 201.70-7.52Q200.88-6.96 199.44-6.54Q198-6.12 195.72-5.60L195.72-5.60L195.48-5.60Q194.76-5.60 192.92-5.28L192.92-5.28Q194.36-1.04 197.52-1.04L197.52-1.04Q199.76-1.04 202.60-3.32L202.60-3.32Q202.88-3.56 203.32-3.56L203.32-3.56Q204.56-3.56 204.56-2.36L204.56-2.36Q204.56-1.96 204.32-1.60ZM200.48-10.56L200.48-10.56Q199.40-12.36 198.04-12.36L198.04-12.36Q197.44-12.36 196.76-12.20Q196.08-12.04 195.46-11.76Q194.84-11.48 194.30-11.08Q193.76-10.68 193.40-10.16L193.40-10.16Q193.24-9.84 193.10-9.24Q192.96-8.64 192.76-7.80L192.76-7.80Q193.84-8 195.14-8.08Q196.44-8.16 197.62-8.40Q198.80-8.64 199.60-9.12Q200.40-9.60 200.48-10.56Z M224.64-1.60L224.64-1.60Q223.36-0.32 221.64 0.60Q219.92 1.52 218.12 1.52L218.12 1.52Q217.36 1.52 214.64 0.96L214.64 0.96Q213.92 0.48 213.12-0.24Q212.32-0.96 211.66-1.90Q211.00-2.84 210.58-3.90Q210.16-4.96 210.16-6.12L210.16-6.12L210.16-6.08Q210.20-6.44 210.24-6.92L210.24-6.92Q210.28-7.36 210.32-7.94Q210.36-8.52 210.44-9.32L210.44-9.32Q211.24-10.60 212.10-11.84Q212.96-13.08 214.64-14.04L214.64-14.04Q217.20-14.64 218.48-14.64L218.48-14.64Q219.08-14.64 219.54-14.58Q220.00-14.52 220.42-14.30Q220.84-14.08 221.26-13.72Q221.68-13.36 222.28-12.76L222.28-12.76Q222.72-12.28 222.96-12.06Q223.20-11.84 223.32-11.72Q223.44-11.60 223.44-11.52Q223.44-11.44 223.44-11.28L223.44-11.28Q223.44-9.84 223.14-8.96Q222.84-8.08 222.02-7.52Q221.20-6.96 219.76-6.54Q218.32-6.12 216.04-5.60L216.04-5.60L215.80-5.60Q215.08-5.60 213.24-5.28L213.24-5.28Q214.68-1.04 217.84-1.04L217.84-1.04Q220.08-1.04 222.92-3.32L222.92-3.32Q223.20-3.56 223.64-3.56L223.64-3.56Q224.88-3.56 224.88-2.36L224.88-2.36Q224.88-1.96 224.64-1.60ZM220.80-10.56L220.80-10.56Q219.72-12.36 218.36-12.36L218.36-12.36Q217.76-12.36 217.08-12.20Q216.40-12.04 215.78-11.76Q215.16-11.48 214.62-11.08Q214.08-10.68 213.72-10.16L213.72-10.16Q213.56-9.84 213.42-9.24Q213.28-8.64 213.08-7.80L213.08-7.80Q214.16-8 215.46-8.08Q216.76-8.16 217.94-8.40Q219.12-8.64 219.92-9.12Q220.72-9.60 220.80-10.56Z M259.04-14.76L259.04-14.76Q259.36-14.52 259.36-13.84L259.36-13.84Q259.36-12.64 258.36-12.64L258.36-12.64L258.20-12.64Q258.20-12.64 257.62-12.58Q257.04-12.52 256.32-12.44Q255.60-12.36 254.94-12.26Q254.28-12.16 254.16-12.08L254.16-12.08L254.16-11.68Q254.16-11.24 254.08-10.50Q254.00-9.76 254.00-9.16L254.00-9.16Q254.00-8.96 254.02-8.76Q254.04-8.56 254.08-8.36L254.08-8.36Q253.92-7.88 253.92-6.76L253.92-6.76Q253.96-5.24 254.00-4.50Q254.04-3.76 254.24-3.40Q254.44-3.04 254.92-2.84Q255.40-2.64 256.32-2.24L256.32-2.24Q257.28-1.92 257.28-1.12L257.28-1.12Q257.28-0.60 256.90-0.24Q256.52 0.12 255.92 0.12L255.92 0.12Q255.64 0.12 255.08 0Q254.52-0.12 253.94-0.34Q253.36-0.56 252.88-0.86Q252.40-1.16 252.24-1.52L252.24-1.52Q251.76-2.56 251.48-3.54Q251.20-4.52 251.20-5.60L251.20-5.60Q251.20-6.72 251.24-7.28Q251.28-7.84 251.32-8.16Q251.36-8.48 251.40-8.74Q251.44-9 251.44-9.48L251.44-9.48Q251.44-9.80 251.42-10.14Q251.40-10.48 251.40-10.80L251.40-10.80Q251.40-11.24 251.42-11.54Q251.44-11.84 251.48-12.04L251.48-12.04Q250.40-11.96 248.28-11.40L248.28-11.40Q247.64-11.40 247.16-11.72Q246.68-12.04 246.68-12.64L246.68-12.64Q246.68-12.80 246.80-13.08Q246.92-13.36 247.22-13.62Q247.52-13.88 248.06-14.06Q248.60-14.24 249.40-14.24L249.40-14.24L249.64-14.24Q250.52-14.24 251.68-14.60L251.68-14.60Q251.68-14.64 251.70-14.94Q251.72-15.24 251.74-15.62Q251.76-16 251.78-16.36Q251.80-16.72 251.80-16.88L251.80-16.88L251.80-17.08Q251.84-17.52 251.96-18.34Q252.08-19.16 252.32-19.98Q252.56-20.80 252.94-21.40Q253.32-22 253.88-22L253.88-22Q254.96-22 255.20-21.04L255.20-21.04Q255.20-20.96 255.10-20.48Q255.00-20 254.88-19.40Q254.76-18.80 254.64-18.24Q254.52-17.68 254.52-17.52L254.52-17.52Q254.52-17.44 254.48-17.08Q254.44-16.72 254.42-16.28Q254.40-15.84 254.36-15.40Q254.32-14.96 254.32-14.76L254.32-14.76Q254.24-14.76 255.40-14.88L255.40-14.88Q255.60-14.88 255.78-14.90Q255.96-14.92 256.12-14.92L256.12-14.92Q256.24-14.92 256.32-14.90Q256.40-14.88 256.48-14.88L256.48-14.88Q256.84-14.92 257.16-14.94Q257.48-14.96 257.76-14.96L257.76-14.96Q258.64-14.96 259.04-14.76Z M277.64-1.28L277.64-1.28Q277.48-0.84 277.02-0.44Q276.56-0.04 276.12-0.04L276.12-0.04Q275.60-0.04 275.32-0.46Q275.04-0.88 274.92-1.54Q274.80-2.20 274.76-3.04Q274.72-3.88 274.72-4.72L274.72-4.72Q274.56-5.12 274.56-5.76L274.56-5.76Q274.56-6.04 274.58-6.38Q274.60-6.72 274.60-6.96L274.60-6.96Q274.60-8.36 274.36-9.22Q274.12-10.08 273.74-10.56Q273.36-11.04 272.92-11.20Q272.48-11.36 272.08-11.36L272.08-11.36Q271.36-11.36 270.62-11.08Q269.88-10.80 269.26-10.44Q268.64-10.08 268.22-9.70Q267.80-9.32 267.68-9.12L267.68-9.12Q267.56-8.68 267.50-7.86Q267.44-7.04 267.40-5.96Q267.36-4.88 267.32-3.62Q267.28-2.36 267.24-1.04L267.24-1.04Q267.12-0.28 266.00-0.28L266.00-0.28Q265.08-0.28 264.80-0.94Q264.52-1.60 264.52-3.20L264.52-3.20Q264.52-3.60 264.54-3.76Q264.56-3.92 264.62-4.32Q264.68-4.72 264.76-5.58Q264.84-6.44 264.96-8.32L264.96-8.32Q265.00-9.20 265.04-9.88Q265.08-10.56 265.04-11.08L265.04-11.08Q265.04-11.52 265.04-11.80Q265.04-12.08 265.00-12.28L265.00-12.28Q265.04-12.32 265.08-12.98Q265.12-13.64 265.20-14.44Q265.28-15.24 265.36-15.98Q265.44-16.72 265.56-17L265.56-17Q265.56-17.20 265.54-17.36Q265.52-17.52 265.52-17.72L265.52-17.72Q265.52-18.36 265.58-19.30Q265.64-20.24 265.84-21.08Q266.04-21.92 266.44-22.52Q266.84-23.12 267.56-23.12L267.56-23.12Q268.72-23.12 268.76-21.88L268.76-21.88Q268.68-20.72 268.48-19.20Q268.28-17.68 267.96-15.20L267.96-15.20Q267.76-14.60 267.76-13L267.76-13L267.76-12.28Q267.84-12.32 268.12-12.52Q268.40-12.72 268.78-12.98Q269.16-13.24 269.60-13.46Q270.04-13.68 270.44-13.76L270.44-13.76Q271.36-13.92 272.36-13.92L272.36-13.92Q274.28-13.92 275.42-12.82Q276.56-11.72 277.08-9.16L277.08-9.16Q277.12-8.20 277.18-7.60Q277.24-7 277.30-6.26Q277.36-5.52 277.46-4.40Q277.56-3.28 277.64-1.28Z M298.72-1.60L298.72-1.60Q297.44-0.32 295.72 0.60Q294.00 1.52 292.20 1.52L292.20 1.52Q291.44 1.52 288.72 0.96L288.72 0.96Q288.00 0.48 287.20-0.24Q286.40-0.96 285.74-1.90Q285.08-2.84 284.66-3.90Q284.24-4.96 284.24-6.12L284.24-6.12L284.24-6.08Q284.28-6.44 284.32-6.92L284.32-6.92Q284.36-7.36 284.40-7.94Q284.44-8.52 284.52-9.32L284.52-9.32Q285.32-10.60 286.18-11.84Q287.04-13.08 288.72-14.04L288.72-14.04Q291.28-14.64 292.56-14.64L292.56-14.64Q293.16-14.64 293.62-14.58Q294.08-14.52 294.50-14.30Q294.92-14.08 295.34-13.72Q295.76-13.36 296.36-12.76L296.36-12.76Q296.80-12.28 297.04-12.06Q297.28-11.84 297.40-11.72Q297.52-11.60 297.52-11.52Q297.52-11.44 297.52-11.28L297.52-11.28Q297.52-9.84 297.22-8.96Q296.92-8.08 296.10-7.52Q295.28-6.96 293.84-6.54Q292.40-6.12 290.12-5.60L290.12-5.60L289.88-5.60Q289.16-5.60 287.32-5.28L287.32-5.28Q288.76-1.04 291.92-1.04L291.92-1.04Q294.16-1.04 297.00-3.32L297.00-3.32Q297.28-3.56 297.72-3.56L297.72-3.56Q298.96-3.56 298.96-2.36L298.96-2.36Q298.96-1.96 298.72-1.60ZM294.88-10.56L294.88-10.56Q293.80-12.36 292.44-12.36L292.44-12.36Q291.84-12.36 291.16-12.20Q290.48-12.04 289.86-11.76Q289.24-11.48 288.70-11.08Q288.16-10.68 287.80-10.16L287.80-10.16Q287.64-9.84 287.50-9.24Q287.36-8.64 287.16-7.80L287.16-7.80Q288.24-8 289.54-8.08Q290.84-8.16 292.02-8.40Q293.20-8.64 294.00-9.12Q294.80-9.60 294.88-10.56Z M328.04-21.32L328.04-21.32Q328.00-20.88 327.88-20.24Q327.76-19.60 327.60-18.94Q327.44-18.28 327.30-17.68Q327.16-17.08 327.08-16.72L327.08-16.72Q327.12-16.52 327.12-16.36Q327.12-16.20 327.12-16L327.12-16Q327.12-15.68 327.04-15.16Q326.96-14.64 326.84-14.08Q326.72-13.52 326.64-13.02Q326.56-12.52 326.56-12.24L326.56-12.24Q326.56-11.84 326.58-11.08Q326.60-10.32 326.60-9.42Q326.60-8.52 326.52-7.56Q326.44-6.60 326.24-5.84L326.24-5.84Q326.28-5.36 326.28-4.88Q326.28-4.40 326.38-3.86Q326.48-3.32 326.74-2.68Q327.00-2.04 327.60-1.32L327.60-1.32Q327.48-0.88 326.86-0.50Q326.24-0.12 325.60-0.12L325.60-0.12Q324.76-0.12 324.22-1.06Q323.68-2 323.68-4.52L323.68-4.52Q323.68-4.96 323.74-5.30Q323.80-5.64 323.80-6.12L323.80-6.12Q323.80-7.12 323.56-8.52L323.56-8.52Q323.72-8.92 323.82-9.64Q323.92-10.36 323.96-11.06Q324.00-11.76 324.02-12.26Q324.04-12.76 324.04-12.72L324.04-12.72Q324.04-12.76 324.14-13.36Q324.24-13.96 324.36-14.80Q324.48-15.64 324.58-16.50Q324.68-17.36 324.68-17.88L324.68-17.88L324.68-18.20Q324.80-18.92 324.96-19.80Q325.12-20.68 325.32-21.72L325.32-21.72Q325.68-22.32 326.52-22.32L326.52-22.32Q327.56-22.32 328.04-21.32Z M340.40-18.24L340.40-18.24Q340.40-17.56 340.18-17.14Q339.96-16.72 339.60-16.52Q339.24-16.32 338.82-16.26Q338.40-16.20 338.00-16.20L338.00-16.20Q337.44-16.60 337.06-17.10Q336.68-17.60 336.68-18.08L336.68-18.08Q336.68-18.44 337.00-18.90Q337.32-19.36 337.56-19.80L337.56-19.80L339.40-19.64Q340.40-19.40 340.40-18.24ZM339.04-12.44L339.04-12.44L339.04-12.28Q339.04-11.92 338.94-11.10Q338.84-10.28 338.64-8.96L338.64-8.96Q338.68-8.76 338.68-8.40L338.68-8.40Q338.68-8.16 338.52-7.32Q338.36-6.48 338.36-5.88L338.36-5.88Q338.36-5.76 338.38-5.64Q338.40-5.52 338.40-5.44L338.40-5.44Q338.28-4.88 338.28-3.84L338.28-3.84Q338.28-3.40 338.30-2.90Q338.32-2.40 338.36-1.84L338.36-1.84Q338.04-0.68 337.12-0.68L337.12-0.68Q336.32-0.68 336.02-1.54Q335.72-2.40 335.72-3.80L335.72-3.80Q335.72-5.20 335.82-6.36Q335.92-7.52 336.08-8.54Q336.24-9.56 336.42-10.50Q336.60-11.44 336.76-12.36L336.76-12.36Q337.16-12.96 337.88-12.96L337.88-12.96Q338.64-12.96 339.04-12.44Z M361.76-13.64L361.76-13.64Q361.88-13.08 361.88-12.24L361.88-12.24Q361.88-10.84 361.52-8.56L361.52-8.56Q361.56-8.40 361.56-7.92L361.56-7.92Q361.56-7.48 361.50-6.88Q361.44-6.28 361.36-5.48L361.36-5.48Q361.40-5.28 361.40-5.06Q361.40-4.84 361.40-4.56L361.40-4.56Q361.40-3.60 361.28-2.16Q361.16-0.72 360.96 1.20L360.96 1.20Q360.40 5.72 357.24 7.88L357.24 7.88Q354.88 8.72 352.36 8.72L352.36 8.72Q351.28 8.72 349.88 8.28L349.88 8.28L347.76 7.44L345.80 5.88Q345.24 5.44 345.00 5.18Q344.76 4.92 344.76 4.64L344.76 4.64Q344.76 3.96 345.14 3.52Q345.52 3.08 346.08 3.08L346.08 3.08Q346.52 3.08 346.96 3.32L346.96 3.32L349.24 5.16Q350.80 6.16 352.92 6.24L352.92 6.24Q353.24 6.24 354.44 5.92L354.44 5.92L355.88 5.56Q356.72 5.08 357.44 3.90Q358.16 2.72 358.32 1.40L358.32 1.40L358.32 1.20Q358.28 0.92 358.36 0.42Q358.44-0.08 358.52-0.84L358.52-0.84L358.80-3.60Q358.72-3.56 358.22-3.22Q357.72-2.88 356.80-2.48Q355.88-2.08 354.56-1.76Q353.24-1.44 351.60-1.44L351.60-1.44Q351.16-1.44 350.52-1.90Q349.88-2.36 348.60-3.44L348.60-3.44L347.64-5.20Q347.28-5.84 347.14-6.54Q347.00-7.24 347.00-7.92L347.00-7.92Q347.00-8.96 347.88-10.04Q348.76-11.12 350.04-12Q351.32-12.88 352.82-13.44Q354.32-14 355.60-14L355.60-14Q356.16-14 357.20-13.92Q358.24-13.84 359.16-13.20L359.16-13.20Q359.16-13.32 359.22-13.52Q359.28-13.72 359.40-13.92Q359.52-14.12 359.78-14.26Q360.04-14.40 360.48-14.40L360.48-14.40Q361.60-14.40 361.76-13.64ZM358.88-10L358.88-10.52Q358.36-11 357.64-11.18Q356.92-11.36 356.28-11.52L356.28-11.52Q355.16-11.40 353.08-10.84L353.08-10.84Q349.92-9.04 349.92-7.36L349.92-7.36Q349.92-7.08 350.14-6.62Q350.36-6.16 350.70-5.66Q351.04-5.16 351.46-4.72Q351.88-4.28 352.32-4.04L352.32-4.04Q353.96-4.04 356.32-5L356.32-5Q357.44-5.20 358.68-7L358.68-7Q358.76-7.80 358.82-8.56Q358.88-9.32 358.88-10L358.88-10Z M382.44-1.28L382.44-1.28Q382.28-0.84 381.82-0.44Q381.36-0.04 380.92-0.04L380.92-0.04Q380.40-0.04 380.12-0.46Q379.84-0.88 379.72-1.54Q379.60-2.20 379.56-3.04Q379.52-3.88 379.52-4.72L379.52-4.72Q379.36-5.12 379.36-5.76L379.36-5.76Q379.36-6.04 379.38-6.38Q379.40-6.72 379.40-6.96L379.40-6.96Q379.40-8.36 379.16-9.22Q378.92-10.08 378.54-10.56Q378.16-11.04 377.72-11.20Q377.28-11.36 376.88-11.36L376.88-11.36Q376.16-11.36 375.42-11.08Q374.68-10.80 374.06-10.44Q373.44-10.08 373.02-9.70Q372.60-9.32 372.48-9.12L372.48-9.12Q372.36-8.68 372.30-7.86Q372.24-7.04 372.20-5.96Q372.16-4.88 372.12-3.62Q372.08-2.36 372.04-1.04L372.04-1.04Q371.92-0.28 370.80-0.28L370.80-0.28Q369.88-0.28 369.60-0.94Q369.32-1.60 369.32-3.20L369.32-3.20Q369.32-3.60 369.34-3.76Q369.36-3.92 369.42-4.32Q369.48-4.72 369.56-5.58Q369.64-6.44 369.76-8.32L369.76-8.32Q369.80-9.20 369.84-9.88Q369.88-10.56 369.84-11.08L369.84-11.08Q369.84-11.52 369.84-11.80Q369.84-12.08 369.80-12.28L369.80-12.28Q369.84-12.32 369.88-12.98Q369.92-13.64 370.00-14.44Q370.08-15.24 370.16-15.98Q370.24-16.72 370.36-17L370.36-17Q370.36-17.20 370.34-17.36Q370.32-17.52 370.32-17.72L370.32-17.72Q370.32-18.36 370.38-19.30Q370.44-20.24 370.64-21.08Q370.84-21.92 371.24-22.52Q371.64-23.12 372.36-23.12L372.36-23.12Q373.52-23.12 373.56-21.88L373.56-21.88Q373.48-20.72 373.28-19.20Q373.08-17.68 372.76-15.20L372.76-15.20Q372.56-14.60 372.56-13L372.56-13L372.56-12.28Q372.64-12.32 372.92-12.52Q373.20-12.72 373.58-12.98Q373.96-13.24 374.40-13.46Q374.84-13.68 375.24-13.76L375.24-13.76Q376.16-13.92 377.16-13.92L377.16-13.92Q379.08-13.92 380.22-12.82Q381.36-11.72 381.88-9.16L381.88-9.16Q381.92-8.20 381.98-7.60Q382.04-7 382.10-6.26Q382.16-5.52 382.26-4.40Q382.36-3.28 382.44-1.28Z M399.60-14.76L399.60-14.76Q399.92-14.52 399.92-13.84L399.92-13.84Q399.92-12.64 398.92-12.64L398.92-12.64L398.76-12.64Q398.76-12.64 398.18-12.58Q397.60-12.52 396.88-12.44Q396.16-12.36 395.50-12.26Q394.84-12.16 394.72-12.08L394.72-12.08L394.72-11.68Q394.72-11.24 394.64-10.50Q394.56-9.76 394.56-9.16L394.56-9.16Q394.56-8.96 394.58-8.76Q394.60-8.56 394.64-8.36L394.64-8.36Q394.48-7.88 394.48-6.76L394.48-6.76Q394.52-5.24 394.56-4.50Q394.60-3.76 394.80-3.40Q395-3.04 395.48-2.84Q395.96-2.64 396.88-2.24L396.88-2.24Q397.84-1.92 397.84-1.12L397.84-1.12Q397.84-0.60 397.46-0.24Q397.08 0.12 396.48 0.12L396.48 0.12Q396.20 0.12 395.64 0Q395.08-0.12 394.50-0.34Q393.92-0.56 393.44-0.86Q392.96-1.16 392.80-1.52L392.80-1.52Q392.32-2.56 392.04-3.54Q391.76-4.52 391.76-5.60L391.76-5.60Q391.76-6.72 391.80-7.28Q391.84-7.84 391.88-8.16Q391.92-8.48 391.96-8.74Q392-9 392-9.48L392-9.48Q392-9.80 391.98-10.14Q391.96-10.48 391.96-10.80L391.96-10.80Q391.96-11.24 391.98-11.54Q392-11.84 392.04-12.04L392.04-12.04Q390.96-11.96 388.84-11.40L388.84-11.40Q388.20-11.40 387.72-11.72Q387.24-12.04 387.24-12.64L387.24-12.64Q387.24-12.80 387.36-13.08Q387.48-13.36 387.78-13.62Q388.08-13.88 388.62-14.06Q389.16-14.24 389.96-14.24L389.96-14.24L390.20-14.24Q391.08-14.24 392.24-14.60L392.24-14.60Q392.24-14.64 392.26-14.94Q392.28-15.24 392.30-15.62Q392.32-16 392.34-16.36Q392.36-16.72 392.36-16.88L392.36-16.88L392.36-17.08Q392.40-17.52 392.52-18.34Q392.64-19.16 392.88-19.98Q393.12-20.80 393.50-21.40Q393.88-22 394.44-22L394.44-22Q395.52-22 395.76-21.04L395.76-21.04Q395.76-20.96 395.66-20.48Q395.56-20 395.44-19.40Q395.32-18.80 395.20-18.24Q395.08-17.68 395.08-17.52L395.08-17.52Q395.08-17.44 395.04-17.08Q395-16.72 394.98-16.28Q394.96-15.84 394.92-15.40Q394.88-14.96 394.88-14.76L394.88-14.76Q394.80-14.76 395.96-14.88L395.96-14.88Q396.16-14.88 396.34-14.90Q396.52-14.92 396.68-14.92L396.68-14.92Q396.80-14.92 396.88-14.90Q396.96-14.88 397.04-14.88L397.04-14.88Q397.40-14.92 397.72-14.94Q398.04-14.96 398.32-14.96L398.32-14.96Q399.20-14.96 399.60-14.76Z M413.28-21.52L413.28-21.52Q413.32-21.32 413.34-21.16Q413.36-21 413.36-20.84L413.36-20.84Q413.40-20.64 413.30-20.32Q413.20-20 413.12-19.60L413.12-19.60L412.64-17.60Q412.56-17.52 412.48-17.16Q412.40-16.80 412.32-16.38Q412.24-15.96 412.20-15.62Q412.16-15.28 412.16-15.28L412.16-15.28Q412.20-15.08 412.20-14.94Q412.20-14.80 412.20-14.64L412.20-14.64Q412.20-14.48 412.20-14.32Q412.20-14.16 412.16-14L412.16-14L412.00-13.20Q411.76-12.16 411.76-11.24L411.76-11.24Q411.76-10.80 411.80-10.60L411.80-10.60L411.64-9.04Q411.52-8.44 411.36-7.86Q411.20-7.28 410.76-7.28L410.76-7.28Q410.24-7.28 409.92-7.60Q409.60-7.92 409.44-8.38Q409.28-8.84 409.22-9.36Q409.16-9.88 409.16-10.24L409.16-10.24Q409.16-10.64 409.20-10.84L409.20-10.84Q409.16-11.40 409.14-11.86Q409.12-12.32 409.12-12.72L409.12-12.72Q409.12-13.76 409.24-14.20L409.24-14.20Q409.20-14.40 409.18-14.60Q409.16-14.80 409.16-15L409.16-15Q409.16-16.28 409.32-17.46Q409.48-18.64 409.72-19.58Q409.96-20.52 410.20-21.10Q410.44-21.68 410.56-21.76L410.56-21.76Q410.92-22.12 411.88-22.12L411.88-22.12Q412.96-22.12 413.28-21.52ZM412.44-1.60L412.44-1.60Q412.44-0.96 411.86-0.60Q411.28-0.24 410.80-0.24L410.80-0.24Q409.96-0.24 409.48-0.44Q409.00-0.64 408.74-0.94Q408.48-1.24 408.40-1.58Q408.32-1.92 408.32-2.24L408.32-2.24Q408.32-2.96 408.84-3.72Q409.36-4.48 410.20-4.48L410.20-4.48Q410.48-4.48 410.86-4.42Q411.24-4.36 411.60-4.08Q411.96-3.80 412.20-3.22Q412.44-2.64 412.44-1.60Z"/></g>
</svg>
</g><g opacity="1" transform="rotate(0 189.9015 186.1294)">
<svg width="393.7126" height="60" x="189.9015" y="186.1294" version="1.1" preserveAspectRatio="none" viewBox="1.16 -22.44 156.96 23.92">
  <g transform="matrix(1 0 0 1 0 0)" class="companyName"><path id="id-D6z1nYkh9" d="M17.88-16.64L17.88-16.64Q17.32-16.40 16.64-16.40L16.64-16.40Q16.44-16.40 16.06-16.44Q15.68-16.48 15.24-16.54Q14.80-16.60 14.38-16.66Q13.96-16.72 13.76-16.72L13.76-16.72Q12.48-16.72 11.28-16.36L11.28-16.36Q11.52-14.84 11.68-13.40Q11.84-11.96 11.96-10.70Q12.08-9.44 12.12-8.42Q12.16-7.40 12.16-6.68L12.16-6.68Q12.16-4.88 12.14-3.58Q12.12-2.28 11.92-1.42Q11.72-0.56 11.28-0.16Q10.84 0.24 10 0.24L10 0.24Q9.20 0.24 8.82-0.18Q8.44-0.60 8.30-1.18Q8.16-1.76 8.18-2.40Q8.20-3.04 8.20-3.48L8.20-3.48Q8.20-4.24 8.32-4.86Q8.44-5.48 8.44-6.04L8.44-6.04Q8.44-6.32 8.28-8.06Q8.12-9.80 8.12-12.44L8.12-12.44Q8.12-13.32 7.94-14.18Q7.76-15.04 7.56-15.84L7.56-15.84L5.20-15.68Q3.76-15.56 3.20-15.24L3.20-15.24Q2.36-15.24 1.76-15.72Q1.16-16.20 1.16-16.96L1.16-16.96Q1.16-17.72 1.84-18.64L1.84-18.64Q2.04-18.68 3.64-18.94Q5.24-19.20 8.24-19.76L8.24-19.76L10.24-20Q11.20-20.12 12.08-20.12L12.08-20.12L12.68-20.12L17.40-19.80Q18.24-19.32 18.24-18L18.24-18Q18.24-17.28 17.88-16.64Z M31.64-13.96L33.04-13.60Q33.68-13.20 33.68-12.08L33.68-12.08Q33.68-11.24 33.24-10.64Q32.80-10.04 32.04-10.04L32.04-10.04Q31.56-10.04 31.06-10.30Q30.56-10.56 30-10.56L30-10.56Q29.52-10.56 29.06-10.38Q28.60-10.20 28-9.60L28-9.60L26.80-8.40Q26.80-8.12 26.82-7.84Q26.84-7.56 26.84-7.24L26.84-7.24Q26.84-6.76 26.82-6.24Q26.80-5.72 26.76-5.12L26.76-5.12L27.12-1.48Q27 0.36 25.24 0.36L25.24 0.36Q24.32 0.36 23.88-0.22Q23.44-0.80 23.28-1.84Q23.12-2.88 23.14-4.28Q23.16-5.68 23.12-7.36L23.12-7.36Q23.04-9.88 23-9.88L23-9.88L23-9.84Q22.84-10.44 22.76-10.90Q22.68-11.36 22.68-11.72L22.68-11.72Q22.68-12.44 23.20-12.90Q23.72-13.36 24.72-13.36L24.72-13.36Q25.36-13.36 26.24-12.36L26.24-12.36Q27.16-13.08 27.66-13.44Q28.16-13.80 28.50-13.96Q28.84-14.12 29.16-14.14Q29.48-14.16 30-14.16L30-14.16Q30.44-14.20 30.82-14.12Q31.20-14.04 31.64-13.96L31.64-13.96Z M51.84-4.72L51.84-4.72Q52.56-4.24 52.56-3.56L52.56-3.56Q52.56-3.20 52.36-2.82Q52.16-2.44 51.84-2.14Q51.52-1.84 51.16-1.64Q50.80-1.44 50.44-1.44L50.44-1.44Q50.12-1.56 49.68-1.86Q49.24-2.16 48.80-2.54Q48.36-2.92 47.98-3.40Q47.60-3.88 47.40-4.36L47.40-4.36L47.12-3.68Q46.36-2.24 44.72-0.96L44.72-0.96Q42.72-0.60 42.40-0.60L42.40-0.60Q41.64-0.60 40.56-0.84L40.56-0.84L38.36-2.40Q36.92-3.76 36.92-6.12L36.92-6.12Q36.92-6.96 37.18-7.98Q37.44-9 37.94-10.04Q38.44-11.08 39.16-12.08Q39.88-13.08 40.84-13.88L40.84-13.88Q42.00-14.32 43.08-14.62Q44.16-14.92 44.72-15L44.72-15Q45.48-15.84 46.52-15.84L46.52-15.84Q47.12-15.84 47.58-15.26Q48.04-14.68 48.38-13.80Q48.72-12.92 48.92-11.86Q49.12-10.80 49.20-9.84L49.20-9.84L49.72-7.72Q49.96-6.72 50.50-6Q51.04-5.28 51.84-4.72ZM45.76-9.16L45.76-9.16Q45.68-9.20 45.16-11.68L45.16-11.68Q44.96-11.68 44.56-11.68Q44.16-11.68 43.62-11.46Q43.08-11.24 42.46-10.70Q41.84-10.16 41.28-9.08L41.28-9.08Q40.44-7.52 40.44-5.96L40.44-5.96Q41.12-4.64 42.56-3.88L42.56-3.88Q43.00-4 43.30-4.16Q43.60-4.32 43.84-4.60Q44.08-4.88 44.30-5.30Q44.52-5.72 44.80-6.36L44.80-6.36Q45.32-7.28 45.54-7.98Q45.76-8.68 45.76-9.16Z M69.88-13.60L69.88-13.48Q69.76-12.60 68.16-9.68L68.16-9.68L66.96-7Q66.60-6.08 66.32-5.44Q66.04-4.80 65.82-4.34Q65.60-3.88 65.38-3.54Q65.16-3.20 64.92-2.88L64.92-2.88Q64.72-2.40 64.36-1.90Q64-1.40 63.52-0.96Q63.04-0.52 62.48-0.24Q61.92 0.04 61.32 0.04L61.32 0.04Q59.64 0.04 58.92-2.08L58.92-2.08Q58.48-2.56 58.08-3.32Q57.68-4.08 57.38-4.80Q57.08-5.52 56.88-6.06Q56.68-6.60 56.64-6.68L56.64-6.68Q56.16-7.68 56.16-9.04L56.16-9.04L56.16-9.36Q55.40-11.28 55.40-12.88L55.40-12.88Q55.40-13.64 56.02-14Q56.64-14.36 57.44-14.36L57.44-14.36Q57.92-14.36 58.22-14.14Q58.52-13.92 58.70-13.50Q58.88-13.08 59.00-12.48Q59.12-11.88 59.28-11.12L59.28-11.12Q59.56-9.80 59.78-8.92Q60.00-8.04 60.26-7.36Q60.52-6.68 60.88-6.02Q61.24-5.36 61.80-4.48L61.80-4.48Q62.80-5.60 63.16-7.12L63.16-7.12Q63.44-7.64 63.62-8.14Q63.80-8.64 64.12-9.44Q64.44-10.24 65.04-11.50Q65.64-12.76 66.80-14.76L66.80-14.76Q67.24-15.32 67.88-15.32L67.88-15.32Q68.60-15.32 69.24-14.76Q69.88-14.20 69.88-13.60L69.88-13.60Z M88.08-1.60L88.08-1.60Q86.80-0.32 85.20 0.58Q83.60 1.48 81.96 1.48L81.96 1.48Q80.48 1.48 78.16 1L78.16 1Q77.36 0.48 76.56-0.26Q75.76-1 75.12-1.90Q74.48-2.80 74.08-3.86Q73.68-4.92 73.68-6.04L73.68-6.04Q73.68-6.36 73.72-6.90Q73.76-7.44 73.82-7.98Q73.88-8.52 73.92-8.92Q73.96-9.32 73.96-9.32L73.96-9.32Q74.76-10.60 75.66-11.86Q76.56-13.12 78.20-14.08L78.20-14.08Q80.80-14.64 81.96-14.64L81.96-14.64Q82.56-14.64 83-14.58Q83.44-14.52 83.86-14.34Q84.28-14.16 84.70-13.80Q85.12-13.44 85.68-12.88L85.68-12.88Q86.32-12.20 86.70-11.96Q87.08-11.72 87.08-11.52L87.08-11.52Q87.08-7.84 84.80-6.52L84.80-6.52Q83.80-6.16 82.20-5.74Q80.60-5.32 77.84-4.96L77.84-4.96Q78.40-3.44 79.32-2.68Q80.24-1.92 81.40-1.92L81.40-1.92Q83.12-1.92 85.72-3.96L85.72-3.96Q86.12-4.32 86.72-4.32L86.72-4.32Q87.36-4.32 87.86-3.84Q88.36-3.36 88.36-2.64L88.36-2.64Q88.36-2.12 88.08-1.60ZM83.56-10.16L83.56-10.16Q82.80-11.40 81.76-11.40L81.76-11.40Q81.32-11.40 80.80-11.28Q80.28-11.16 79.74-10.94Q79.20-10.72 78.74-10.40Q78.28-10.08 78-9.64L78-9.64L77.60-8.44Q78.96-8.56 80-8.64Q81.04-8.72 81.80-8.88Q82.56-9.04 83-9.32Q83.44-9.60 83.56-10.16Z M99.52-21.04L99.52-21.04Q99.44-20.04 99.06-18.78Q98.68-17.52 98.52-16.72L98.52-16.72L98.52-16.24Q98.52-15.68 98.44-15.04Q98.36-14.40 98.28-13.82Q98.20-13.24 98.10-12.80Q98.00-12.36 98.00-12.20L98.00-12.20Q97.96-12 97.96-11.24Q97.96-10.48 97.96-9.20L97.96-9.20L97.96-8.72Q97.96-7.92 97.88-7.32Q97.80-6.72 97.68-6.24L97.68-6.24L98.04-3.24Q98.20-2.80 99.12-1.92L99.12-1.92Q98.92-1.20 98.08-0.62Q97.24-0.04 96.36-0.04L96.36-0.04Q95.16-0.04 94.54-1.18Q93.92-2.32 93.92-5L93.92-5Q93.92-5.44 93.98-5.76Q94.04-6.08 94.04-6.56L94.04-6.56Q94.04-7.52 93.80-8.96L93.80-8.96Q94.00-9.40 94.10-10.08Q94.20-10.76 94.24-11.38Q94.28-12 94.28-12.44Q94.28-12.88 94.28-12.80L94.28-12.80Q94.28-12.76 94.38-13.36Q94.48-13.96 94.60-14.78Q94.72-15.60 94.82-16.48Q94.92-17.36 94.92-17.88L94.92-17.88L94.92-18.20L95.60-21.56Q96.12-22.44 97.40-22.44L97.40-22.44Q98.80-22.44 99.52-21.04Z M118.04-11.52L118.04-11.52Q119-9.64 119-8.08L119-8.08Q119-6.92 118.48-5.72L118.48-5.72L117.64-3.80L116.40-2.48Q115.12-1.08 113.88-0.66Q112.64-0.24 111.88-0.24L111.88-0.24Q110.92-0.24 109.92-0.84L109.92-0.84Q109.40-0.40 108.76-0.40L108.76-0.40Q108.04-0.40 107.04-0.96L107.04-0.96Q107.08-1.36 107.08-1.84Q107.08-2.32 107.08-2.88L107.08-2.88Q107.08-3.20 107.04-3.48Q107-3.76 106.96-4.22Q106.92-4.68 106.88-5.44Q106.84-6.20 106.80-7.44L106.80-7.44Q106.76-8.72 106.64-9.46Q106.52-10.20 106.40-10.40L106.40-10.40Q106.20-11.76 106.04-13.16Q105.88-14.56 105.72-15.78Q105.56-17 105.40-17.96Q105.24-18.92 105.08-19.40L105.08-19.40Q105.08-20.32 105.52-20.96Q105.96-21.60 106.72-21.60L106.72-21.60Q107.12-21.60 107.48-21.48Q107.84-21.36 108.14-21Q108.44-20.64 108.68-20Q108.92-19.36 109.04-18.32L109.04-18.32Q109.16-17.32 109.22-16.92Q109.28-16.52 109.34-16.12Q109.40-15.72 109.48-15Q109.56-14.28 109.76-12.64L109.76-12.64Q110.48-13.04 111.02-13.30Q111.56-13.56 112.04-13.72Q112.52-13.88 113.02-13.92Q113.52-13.96 114.20-13.96L114.20-13.96Q114.96-13.96 115.58-13.72Q116.20-13.48 116.66-13.12Q117.12-12.76 117.46-12.34Q117.80-11.92 118.04-11.52ZM115.24-6.80L115.24-6.80Q115.44-7.92 115.44-8.28L115.44-8.28Q115.44-8.48 115.32-8.86Q115.20-9.24 114.98-9.60Q114.76-9.96 114.44-10.24Q114.12-10.52 113.68-10.52L113.68-10.52Q113-10.52 112.12-10Q111.24-9.48 110.36-8.96L110.36-8.96L110.60-4.72Q110.88-3.72 111.64-3.72L111.64-3.72Q112.04-3.72 112.60-3.96Q113.16-4.20 113.70-4.62Q114.24-5.04 114.68-5.60Q115.12-6.16 115.24-6.80Z M137.80-1.60L137.80-1.60Q136.52-0.32 134.92 0.58Q133.32 1.48 131.68 1.48L131.68 1.48Q130.20 1.48 127.88 1L127.88 1Q127.08 0.48 126.28-0.26Q125.48-1 124.84-1.90Q124.20-2.80 123.80-3.86Q123.40-4.92 123.40-6.04L123.40-6.04Q123.40-6.36 123.44-6.90Q123.48-7.44 123.54-7.98Q123.60-8.52 123.64-8.92Q123.68-9.32 123.68-9.32L123.68-9.32Q124.48-10.60 125.38-11.86Q126.28-13.12 127.92-14.08L127.92-14.08Q130.52-14.64 131.68-14.64L131.68-14.64Q132.28-14.64 132.72-14.58Q133.16-14.52 133.58-14.34Q134-14.16 134.42-13.80Q134.84-13.44 135.40-12.88L135.40-12.88Q136.04-12.20 136.42-11.96Q136.80-11.72 136.80-11.52L136.80-11.52Q136.80-7.84 134.52-6.52L134.52-6.52Q133.52-6.16 131.92-5.74Q130.32-5.32 127.56-4.96L127.56-4.96Q128.12-3.44 129.04-2.68Q129.96-1.92 131.12-1.92L131.12-1.92Q132.84-1.92 135.44-3.96L135.44-3.96Q135.84-4.32 136.44-4.32L136.44-4.32Q137.08-4.32 137.58-3.84Q138.08-3.36 138.08-2.64L138.08-2.64Q138.08-2.12 137.80-1.60ZM133.28-10.16L133.28-10.16Q132.52-11.40 131.48-11.40L131.48-11.40Q131.04-11.40 130.52-11.28Q130-11.16 129.46-10.94Q128.92-10.72 128.46-10.40Q128-10.08 127.72-9.64L127.72-9.64L127.32-8.44Q128.68-8.56 129.72-8.64Q130.76-8.72 131.52-8.88Q132.28-9.04 132.72-9.32Q133.16-9.60 133.28-10.16Z M157.40-4.72L157.40-4.72Q158.12-4.24 158.12-3.56L158.12-3.56Q158.12-3.20 157.92-2.82Q157.72-2.44 157.40-2.14Q157.08-1.84 156.72-1.64Q156.36-1.44 156-1.44L156-1.44Q155.68-1.56 155.24-1.86Q154.80-2.16 154.36-2.54Q153.92-2.92 153.54-3.40Q153.16-3.88 152.96-4.36L152.96-4.36L152.68-3.68Q151.92-2.24 150.28-0.96L150.28-0.96Q148.28-0.60 147.96-0.60L147.96-0.60Q147.20-0.60 146.12-0.84L146.12-0.84L143.92-2.40Q142.48-3.76 142.48-6.12L142.48-6.12Q142.48-6.96 142.74-7.98Q143-9 143.50-10.04Q144-11.08 144.72-12.08Q145.44-13.08 146.40-13.88L146.40-13.88Q147.56-14.32 148.64-14.62Q149.72-14.92 150.28-15L150.28-15Q151.04-15.84 152.08-15.84L152.08-15.84Q152.68-15.84 153.14-15.26Q153.60-14.68 153.94-13.80Q154.28-12.92 154.48-11.86Q154.68-10.80 154.76-9.84L154.76-9.84L155.28-7.72Q155.52-6.72 156.06-6Q156.60-5.28 157.40-4.72ZM151.32-9.16L151.32-9.16Q151.24-9.20 150.72-11.68L150.72-11.68Q150.52-11.68 150.12-11.68Q149.72-11.68 149.18-11.46Q148.64-11.24 148.02-10.70Q147.40-10.16 146.84-9.08L146.84-9.08Q146-7.52 146-5.96L146-5.96Q146.68-4.64 148.12-3.88L148.12-3.88Q148.56-4 148.86-4.16Q149.16-4.32 149.40-4.60Q149.64-4.88 149.86-5.30Q150.08-5.72 150.36-6.36L150.36-6.36Q150.88-7.28 151.10-7.98Q151.32-8.68 151.32-9.16Z"/></g>
</svg>
</g><g opacity="1" transform="rotate(0 160.1164 176.1294)">
<svg width="9.7851" height="124" x="160.1164" y="176.1294" version="1.1" preserveAspectRatio="none" viewBox="6.48 -25.44 2.3200000000000003 29.4">
  <g transform="matrix(1 0 0 1 0 0)" class="icon3"><path id="id-lXek8z7fT1" d="M8.68-12.24L8.68-12.24Q8.68-12 8.74-11Q8.80-10 8.80-8.16L8.80-8.16Q8.80-6.80 8.60-6.32L8.60-6.32Q8.68-5.96 8.68-5.58Q8.68-5.20 8.68-4.76L8.68-4.76Q8.68-3.84 8.58-2.86Q8.48-1.88 8.44-0.96L8.44-0.96Q8.48-0.48 8.48-0.02Q8.48 0.44 8.48 0.88L8.48 0.88Q8.48 1.36 8.48 1.90Q8.48 2.44 8.42 2.90Q8.36 3.36 8.18 3.66Q8 3.96 7.64 3.96L7.64 3.96Q7 3.96 6.84 3.72L6.84 3.72Q6.48 2.24 6.48-0.04L6.48-0.04Q6.48-1.40 6.66-3.12Q6.84-4.84 6.84-6.56L6.84-6.56Q6.84-8.08 6.60-9.52L6.60-9.52Q6.60-9.60 6.64-10.30Q6.68-11 6.72-11.88Q6.76-12.76 6.84-13.54Q6.92-14.32 7.04-14.56L7.04-14.56Q6.84-15.36 6.84-17.48L6.84-17.48Q6.84-18.12 6.84-18.82Q6.84-19.52 6.86-20.40Q6.88-21.28 6.98-22.42Q7.08-23.56 7.28-25.16L7.28-25.16Q7.32-25.44 7.84-25.44L7.84-25.44Q8.60-25.44 8.70-25.04Q8.80-24.64 8.80-23.72L8.80-23.72Q8.80-23.12 8.76-22.32Q8.72-21.52 8.64-20.48L8.64-20.48Q8.68-19.20 8.68-17.14Q8.68-15.08 8.68-12.24Z"/></g>
</svg>
</g></svg></svg>